<svg width="73" height="40" viewBox="0 0 73 40" fill="none" xmlns="http://www.w3.org/2000/svg">
<g clip-path="url(#clip0_95_273)">
<path d="M30.8786 36.8874C30.8786 25.7282 30.8786 14.7999 30.8786 3.65911C30.3274 3.65911 29.8175 3.66479 29.3078 3.65772C28.6188 3.64815 27.9289 3.64971 27.2415 3.60785C26.5304 3.56454 26.0985 3.14926 26.0979 2.37834C26.0975 1.67321 26.4953 1.20517 27.1454 1.19222C29.1602 1.15214 31.1762 1.17757 33.314 1.17757C33.314 8.97366 33.314 16.6635 33.314 24.3534C33.4019 24.4129 33.4898 24.4725 33.5777 24.532C36.8108 21.6563 40.0439 18.7806 43.4611 15.7411C42.9381 15.6799 42.6461 15.6445 42.3539 15.6117C41.3877 15.5035 40.8481 15.0252 40.8445 14.2724C40.8407 13.4876 41.3361 13.038 42.3782 13.0249C44.73 12.9955 47.0823 13.0122 49.4344 13.0125C50.651 13.0126 51.8682 12.9897 53.0838 13.0295C54.0627 13.0617 54.5174 13.4623 54.5568 14.2031C54.5989 14.993 54.1069 15.511 53.1155 15.5815C52.2719 15.6415 51.4216 15.5939 50.5743 15.5939C50.5213 15.6859 50.4683 15.7779 50.4153 15.8699C53.0028 18.517 55.5902 21.1641 58.2717 23.9075C60.9518 21.1758 63.5357 18.542 66.1197 15.9083C66.0913 15.8089 66.063 15.7095 66.0347 15.6102C65.4123 15.6102 64.79 15.6145 64.1677 15.6084C63.8438 15.6051 63.5147 15.6184 63.1975 15.5627C62.4085 15.4242 61.9225 14.8919 61.9393 14.2354C61.9567 13.5586 62.4245 13.0622 63.2855 13.0459C65.6366 13.0012 67.989 13.0129 70.3406 13.0344C71.0503 13.0408 71.6205 13.354 71.7053 14.2064C71.7713 14.8635 71.2874 15.3857 70.4921 15.557C70.2157 15.6164 69.9316 15.6343 69.5888 15.6793C66.4227 18.9425 63.2301 22.2329 59.9583 25.6049C63.6167 29.3754 67.2153 33.0843 70.8343 36.8143C71.1976 36.8471 71.5567 36.8798 71.9157 36.9122C72.6058 36.9744 72.9292 37.4479 72.9705 38.1087C73.014 38.8034 72.6388 39.2436 72.0027 39.3905C71.7292 39.4537 71.4388 39.4577 71.1562 39.4583C68.7233 39.4629 66.2901 39.4613 63.8568 39.4594C63.6544 39.4592 63.4495 39.4614 63.25 39.4309C62.4676 39.3111 61.9812 38.7887 62.0449 38.0899C62.1143 37.328 62.5709 36.9323 63.2652 36.911C64.3997 36.8762 65.5356 36.8947 66.6708 36.8835C66.859 36.8816 67.0469 36.8431 67.5208 36.7888C64.3692 33.5548 61.3864 30.4941 58.2798 27.3062C55.2812 30.3605 52.349 33.347 49.1826 36.5721C49.8289 36.7222 50.1805 36.8602 50.5368 36.8755C51.4276 36.9136 52.3219 36.8657 53.2122 36.9099C54.0115 36.9497 54.4975 37.4481 54.5119 38.1389C54.5261 38.8228 54.0296 39.4163 53.2632 39.4253C50.3439 39.4596 47.424 39.4601 44.5046 39.4291C43.6983 39.4205 43.2089 38.8965 43.1782 38.2137C43.1447 37.4709 43.6363 36.9973 44.5278 36.8931C44.9838 36.8398 45.4371 36.7609 45.8916 36.6936C45.9318 36.588 45.9721 36.4824 46.0123 36.3768C42.7532 32.8204 39.494 29.264 36.1222 25.5848C35.1867 26.4092 34.2982 27.1922 33.3486 28.0289C33.3486 31.7702 33.3486 35.5038 33.3486 39.3796C32.8227 39.4107 32.3964 39.4554 31.9699 39.4574C30.51 39.4644 29.0496 39.4798 27.5904 39.4458C26.6103 39.4229 26.087 38.9285 26.0933 38.1416C26.0996 37.352 26.5983 36.9212 27.6256 36.8937C28.6704 36.8656 29.7164 36.8874 30.8786 36.8874ZM56.5909 25.6031C53.3487 22.3 50.2291 19.1221 47.0403 15.8735C43.9699 18.6013 40.9728 21.2638 37.9123 23.9826C41.2311 27.5803 44.4495 31.0692 47.727 34.6222C50.7059 31.5912 53.5971 28.6492 56.5909 25.6031Z" fill="white"/>
<path d="M12.339 36.8878C15.0889 36.8878 17.5951 36.8853 20.1014 36.8903C20.5055 36.8911 20.9176 36.8788 21.3118 36.9554C21.9004 37.0696 22.2272 37.4922 22.2387 38.1325C22.2502 38.7696 21.9442 39.2116 21.3652 39.3632C21.0171 39.4543 20.6428 39.4573 20.2803 39.4576C14.1612 39.4629 8.04214 39.4615 1.92307 39.4613C1.76102 39.4613 1.59814 39.467 1.43707 39.4524C0.543788 39.3715 0.0553753 38.9074 0.0625786 38.1541C0.0698792 37.3895 0.546951 36.9112 1.45802 36.9003C3.80809 36.8721 6.15862 36.8887 8.50901 36.8875C8.94397 36.8873 9.379 36.8875 9.88697 36.8875C9.88697 25.9668 9.88697 15.1871 9.88697 4.24224C9.40123 4.37359 8.98009 4.46584 8.57185 4.60153C6.52383 5.28217 4.47919 5.97422 2.43331 6.66204C2.2022 6.73974 1.9751 6.84083 1.73853 6.8884C0.892809 7.05848 0.283592 6.70736 0.110616 5.97083C-0.0423806 5.31937 0.314571 4.68169 1.07493 4.40695C2.26221 3.97795 3.46727 3.60463 4.66373 3.20418C6.97967 2.42903 9.29463 1.65069 11.6108 0.876179C11.7959 0.814291 11.9867 0.771835 12.3389 0.675476C12.339 12.7588 12.339 24.7318 12.339 36.8878Z" fill="white"/>
</g>
<defs>
<clipPath id="clip0_95_273">
<rect width="72.9375" height="39.274" fill="white" transform="translate(0.0625 0.675476)"/>
</clipPath>
</defs>
</svg>
