<svg width="146" height="34" viewBox="0 0 146 34" fill="none" xmlns="http://www.w3.org/2000/svg">
<path d="M117.432 0.539997C113.472 1.16735 111.433 3.67676 111.76 7.49315C111.865 8.66944 112.466 9.88493 113.329 10.643C114.453 11.6232 115.563 12.0676 120.099 13.3615C122.229 13.9627 123.118 14.7338 123.118 15.9624C123.105 17.57 121.17 18.498 118.543 18.1712C117.171 18.0013 116.125 17.4654 115.224 16.4721L114.518 15.6879L112.936 16.8904C112.061 17.5569 111.355 18.1451 111.355 18.1973C111.355 18.2496 111.59 18.5894 111.878 18.9554C112.897 20.2493 114.335 21.1381 116.204 21.6609C116.87 21.8569 117.537 21.9092 119.458 21.9092C121.641 21.9092 121.968 21.883 122.856 21.5955C124.712 21.0204 125.719 20.3277 126.529 19.073C127.614 17.387 127.745 14.4855 126.817 12.6427C126.032 11.1004 124.516 10.1594 121.353 9.28372C117.289 8.14664 116.687 7.91138 116.308 7.28403C116.008 6.78738 115.995 6.01626 116.269 5.42812C116.426 5.11444 116.687 4.89225 117.223 4.63086C117.877 4.30411 118.099 4.2649 119.262 4.2649C119.981 4.2649 120.818 4.34332 121.105 4.43481C121.798 4.63086 122.817 5.38891 123.314 6.0424C123.523 6.32994 123.732 6.55212 123.784 6.55212C123.902 6.55212 126.908 4.21262 126.908 4.10806C126.908 3.8728 126.268 3.07555 125.64 2.51354C124.124 1.15428 122.386 0.553066 119.785 0.474648C118.922 0.448509 117.864 0.474648 117.432 0.539997Z" fill="white"/>
<path d="M135.861 0.539997C131.901 1.16735 129.862 3.67676 130.189 7.49315C130.293 8.66944 130.895 9.88493 131.757 10.643C132.881 11.6232 133.992 12.0676 138.527 13.3615C140.658 13.9627 141.547 14.7338 141.547 15.9624C141.533 17.57 139.599 18.498 136.972 18.1712C135.6 18.0013 134.554 17.4654 133.652 16.4721L132.947 15.6879L131.365 16.8904C130.489 17.5569 129.784 18.1451 129.784 18.1973C129.784 18.2496 130.019 18.5894 130.306 18.9554C131.326 20.2493 132.764 21.1381 134.633 21.6609C135.299 21.8569 135.966 21.9092 137.887 21.9092C140.07 21.9092 140.396 21.883 141.285 21.5955C143.141 21.0204 144.147 20.3277 144.958 19.073C146.043 17.387 146.173 14.4855 145.245 12.6427C144.461 11.1004 142.945 10.1594 139.782 9.28372C135.717 8.14664 135.116 7.91138 134.737 7.28403C134.437 6.78738 134.423 6.01626 134.698 5.42812C134.855 5.11444 135.116 4.89225 135.652 4.63086C136.306 4.30411 136.528 4.2649 137.691 4.2649C138.41 4.2649 139.246 4.34332 139.534 4.43481C140.226 4.63086 141.246 5.38891 141.743 6.0424C141.952 6.32994 142.161 6.55212 142.213 6.55212C142.331 6.55212 145.337 4.21262 145.337 4.10806C145.337 3.8728 144.696 3.07555 144.069 2.51354C142.553 1.15428 140.815 0.553066 138.214 0.474648C137.351 0.448509 136.292 0.474648 135.861 0.539997Z" fill="white"/>
<path d="M0.130859 11.1918V21.5823H4.61381C9.46272 21.5823 10.7697 21.4646 12.2858 20.9026C13.9718 20.2884 15.0435 19.3343 15.6055 17.9881C16.1675 16.6419 16.1153 14.3154 15.4748 13.0607C14.8606 11.8322 13.5536 10.9304 11.9068 10.5905L11.1749 10.4468L11.9721 10.1592C13.8411 9.47961 14.7299 8.2249 14.8606 6.10759C15.0174 3.61125 14.011 2.09515 11.6977 1.37631C10.2731 0.945002 8.84844 0.840443 4.15637 0.814304L0.130859 0.788164V11.1918ZM9.63263 4.95744C10.2992 5.31033 10.5867 5.80698 10.5867 6.61731C10.5867 7.83281 10.0509 8.47323 8.77002 8.77384C8.16881 8.90453 4.91442 9.03523 4.61381 8.93067C4.48311 8.89146 4.44391 8.32946 4.44391 6.72187V4.56535L6.77034 4.61763C8.86151 4.65684 9.13598 4.69604 9.63263 4.95744ZM9.41044 12.8386C10.3645 12.9954 10.9004 13.2568 11.2794 13.7665C11.7892 14.4461 11.7892 16.0276 11.2925 16.7203C11.1487 16.9163 10.7436 17.2169 10.3776 17.3999C9.7764 17.7005 9.59342 17.7267 7.09708 17.7659L4.44391 17.8182V15.2565V12.6948H6.50894C7.63295 12.6948 8.93993 12.7601 9.41044 12.8386Z" fill="white"/>
<path d="M24.4143 1.15412C24.349 1.36324 22.7937 6.0161 20.977 11.5185L17.6572 21.5169L19.6438 21.5561C20.7286 21.5692 21.6827 21.5692 21.7612 21.53C21.8396 21.5039 22.1925 20.5628 22.5453 19.4388L23.1858 17.3999H27.1851H31.1714L31.8641 19.4911L32.5568 21.5823H34.7134C35.8896 21.5823 36.8568 21.5431 36.8437 21.4777C36.8437 21.4254 35.3015 16.7726 33.4194 11.1264L29.9952 0.866585L27.2766 0.827375L24.545 0.801235L24.4143 1.15412ZM28.5575 9.32277C29.2632 11.5054 29.8645 13.3613 29.8906 13.4398C29.9429 13.5705 29.3547 13.6097 27.1851 13.6097C24.9502 13.6097 24.4274 13.5705 24.4797 13.4398C24.5189 13.3483 25.1201 11.4924 25.8259 9.32277C26.5316 7.15318 27.1459 5.37568 27.1851 5.37568C27.2374 5.37568 27.8517 7.15318 28.5575 9.32277Z" fill="white"/>
<path d="M39.4707 11.1918V21.5823H41.5619H43.6531L43.6792 14.2762L43.7184 6.9702L47.4433 14.2762L51.1682 21.5823H53.6907H56.2001L56.174 11.2179L56.1347 0.866583L54.0828 0.827374L52.0177 0.788164L51.9916 7.75439L51.9524 14.7206L48.4497 7.75439L44.96 0.801233H42.2154H39.4707V11.1918Z" fill="white"/>
<path d="M60.644 11.1918V21.5823H62.8006H64.9571V17.9358V14.2893L65.5583 13.6227L66.1464 12.9693L69.0087 17.2692L71.8841 21.5823H74.5111H77.1382L76.9421 21.2817C76.8376 21.1248 74.9817 18.4717 72.8121 15.3872L68.878 9.76714L69.1786 9.4404C69.427 9.16593 75.7658 1.83375 76.4324 1.02342C76.6154 0.814306 76.4978 0.801235 74.1583 0.801235L71.6881 0.814306L68.3552 4.80061L65.0224 8.77384L64.9571 4.82675L64.8917 0.866585L62.7744 0.827375L60.644 0.801235V11.1918Z" fill="white"/>
<path d="M79.8564 11.1918V21.5823H86.326H92.7956V19.6218V17.6613H88.4825H84.1695L84.1434 9.25742L84.1041 0.866585L81.9868 0.827375L79.8564 0.801235V11.1918Z" fill="white"/>
<path d="M95.4097 11.1918V21.5823H102.141H108.872V19.6218V17.6613H104.297H99.7227V15.2042V12.7471H103.578L107.434 12.7601V10.8911V9.03523H103.578H99.7227V6.81336V4.59149H104.297H108.872V2.69636V0.801235H102.141H95.4097V11.1918Z" fill="white"/>
<path d="M0.0522631 29.5942C0.0261235 29.6857 0.0130536 30.6136 0.0261235 31.6461L0.065333 33.5413H71.8841H143.703V31.5154V29.4896L71.9102 29.4504C13.1874 29.4243 0.104542 29.4504 0.0522631 29.5942Z" fill="white"/>
</svg>
