<svg width="32" height="32" viewBox="0 0 32 32" fill="none" xmlns="http://www.w3.org/2000/svg">
<path d="M29.3336 11.3333C29.3336 15.68 26.1336 19.2666 21.9736 19.8933V19.8133C21.5603 14.64 17.3603 10.44 12.1469 10.0266H12.1069C12.7336 5.86663 16.3203 2.66663 20.667 2.66663C25.4536 2.66663 29.3336 6.54663 29.3336 11.3333Z" fill="#7853F8"/>
<path d="M19.9732 19.9733C19.6398 15.7467 16.2532 12.36 12.0265 12.0267C11.7998 12.0133 11.5598 12 11.3332 12C6.5465 12 2.6665 15.88 2.6665 20.6667C2.6665 25.4533 6.5465 29.3333 11.3332 29.3333C16.1198 29.3333 19.9998 25.4533 19.9998 20.6667C19.9998 20.44 19.9865 20.2 19.9732 19.9733ZM12.5065 21.84L11.3332 24L10.1598 21.84L7.99984 20.6667L10.1598 19.4933L11.3332 17.3333L12.5065 19.4933L14.6665 20.6667L12.5065 21.84Z" fill="#7853F8"/>
</svg>
