<svg width="28" height="28" viewBox="0 0 28 28" fill="none" xmlns="http://www.w3.org/2000/svg">
<path d="M12.6024 1.60589L4.09795 6.51594C0.403889 8.64871 -0.526882 12.1224 1.60589 15.8165L6.51008 24.3108C8.6487 28.015 12.1224 28.9457 15.8165 26.813L24.3108 21.9088C28.0048 19.776 28.9356 16.3023 26.8028 12.6083L21.8928 4.10381C19.7702 0.403892 16.2965 -0.52688 12.6024 1.60589ZM14.5434 19.6862C14.9184 20.3358 14.6954 21.1682 14.0357 21.549C13.3862 21.924 12.5538 21.701 12.1788 21.0515L10.2687 17.743C9.8937 17.0935 10.1167 16.2611 10.7663 15.8861C11.4259 15.5053 12.2583 15.7283 12.6333 16.3778L14.5434 19.6862ZM21.1501 15.8719C21.5251 16.5214 21.3021 17.3538 20.6526 17.7288C19.9929 18.1096 19.1605 17.8866 18.7855 17.2371L13.8754 8.73262C13.5005 8.08312 13.7235 7.25071 14.3832 6.86986C15.0327 6.49487 15.8651 6.71791 16.2401 7.36742L21.1501 15.8719Z" fill="#A28AF8"/>
</svg>
