<svg width="37" height="40" viewBox="0 0 37 40" fill="none" xmlns="http://www.w3.org/2000/svg">
<path d="M35.4715 28.0533C33.7825 32.8401 30.4666 36.8821 26.1022 39.4741C25.8743 39.6099 25.6193 39.6938 25.3553 39.7198C25.0913 39.7459 24.8248 39.7134 24.5747 39.6248C24.1765 39.4853 23.8398 39.2107 23.6229 38.8488L13.453 21.8595C13.3089 21.6185 13.223 21.3473 13.202 21.0674C13.1811 20.7875 13.2257 20.5065 13.3323 20.2468L19.9378 1.51362C20.0971 1.06195 20.4292 0.69205 20.8612 0.485288C21.2932 0.278527 21.7897 0.251842 22.2413 0.411105C27.6613 2.32226 32.1002 6.30823 34.5813 11.4922C37.0624 16.6761 37.3827 22.6333 35.4715 28.0533ZM17.2532 31.6627C15.7522 31.8773 14.2233 31.7843 12.7594 31.3894C11.2955 30.9944 9.92724 30.3058 8.7379 29.3653C7.54856 28.4249 6.56299 27.2523 5.84115 25.9189C5.11931 24.5855 4.67629 23.1192 4.53904 21.6092C4.4018 20.0992 4.5732 18.577 5.04281 17.1354C5.51243 15.6937 6.27044 14.3626 7.27074 13.2232C8.27103 12.0837 9.49269 11.1596 10.8614 10.5072C12.2301 9.85484 13.7172 9.48771 15.2323 9.4282L16.4933 5.85187C12.9209 5.60977 9.38177 6.67033 6.53124 8.83717C3.6807 11.004 1.71187 14.1304 0.989306 17.6373C0.266744 21.1443 0.839397 24.7942 2.60123 27.9114C4.36306 31.0286 7.19473 33.4018 10.5719 34.5915C13.3485 35.5707 16.3558 35.6903 19.2014 34.9346L17.2532 31.6627Z" fill="#A48BFB"/>
</svg>
