<svg width="64" height="64" viewBox="0 0 64 64" fill="none" xmlns="http://www.w3.org/2000/svg">
<g opacity="0.1">
<rect width="64" height="64" rx="20" fill="#E8F2FF"/>
<rect width="64" height="64" rx="20" fill="#F8F9FD"/>
</g>
<path d="M18.7557 25.0793L18.2202 24.5439L19.5327 23.2306L18.2202 21.9173L18.7568 21.3808L20.6059 23.2306L18.7557 25.0793ZM18.488 17.4335C18.197 17.4335 17.9609 17.6696 17.9609 17.9605C17.9609 18.2514 18.197 18.4875 18.488 18.4875C18.7789 18.4875 19.0151 18.2514 19.0151 17.9605C19.0151 17.6696 18.7789 17.4335 18.488 17.4335ZM21.1235 17.9605C21.1235 18.2514 20.8874 18.4875 20.5964 18.4875C20.3054 18.4875 20.0693 18.2514 20.0693 17.9605C20.0693 17.6696 20.3054 17.4335 20.5964 17.4335C20.8874 17.4335 21.1235 17.6696 21.1235 17.9605ZM23.232 17.9605C23.232 18.2514 22.9958 18.4875 22.7048 18.4875C22.4139 18.4875 22.1777 18.2514 22.1777 17.9605C22.1777 17.6696 22.4139 17.4335 22.7048 17.4335C22.9958 17.4335 23.232 17.6696 23.232 17.9605ZM34.8284 22.1765C34.8284 22.4675 34.5922 22.7036 34.3013 22.7036C34.0103 22.7036 33.7742 22.4675 33.7742 22.1765C33.7742 21.8856 34.0103 21.6495 34.3013 21.6495C34.5922 21.6495 34.8284 21.8856 34.8284 22.1765ZM36.9368 22.1765C36.9368 22.4675 36.7007 22.7036 36.4097 22.7036C36.1187 22.7036 35.8826 22.4675 35.8826 22.1765C35.8826 21.8856 36.1187 21.6495 36.4097 21.6495C36.7007 21.6495 36.9368 21.8856 36.9368 22.1765ZM39.0453 22.1765C39.0453 22.4675 38.8091 22.7036 38.5181 22.7036C38.2272 22.7036 37.991 22.4675 37.991 22.1765C37.991 21.8856 38.2272 21.6495 38.5181 21.6495C38.8091 21.6495 39.0453 21.8856 39.0453 22.1765ZM21.1235 41.1489C21.1235 41.4398 20.8874 41.6759 20.5964 41.6759C20.3054 41.6759 20.0693 41.4398 20.0693 41.1489C20.0693 40.858 20.3054 40.6219 20.5964 40.6219C20.8874 40.6219 21.1235 40.858 21.1235 41.1489ZM29.0302 30.4611H16.3795C16.1697 30.4611 16 30.2914 16 30.0817V16.3794C16 16.1697 16.1697 16 16.3795 16H29.0302C29.2399 16 29.4097 16.1697 29.4097 16.3794V30.0817C29.4097 30.2914 29.2399 30.4611 29.0302 30.4611ZM28.6506 19.9209H16.759V29.7022H28.6506V19.9209ZM28.6506 16.7589H16.759V19.1631H28.6506V16.7589ZM48.3856 20.5955V38.5138C48.3856 38.7236 48.2159 38.8933 48.0061 38.8933H36.0839C35.7666 39.3897 35.3565 39.8261 34.8695 40.1739C37.9004 41.2806 39.9498 44.156 39.9498 47.4488L39.9519 47.9979L39.1918 48L39.1897 47.4498C39.1897 44.2055 36.9864 41.4113 33.8311 40.6514C33.6729 40.6145 33.557 40.4796 33.5422 40.3183C33.5275 40.157 33.616 40.0032 33.7647 39.9378C35.151 39.3138 36.0471 37.9352 36.0471 36.4237C36.0471 34.2978 34.3181 32.5692 32.1928 32.5692C30.0654 32.5692 28.3344 34.2978 28.3344 36.4237C28.3344 37.9352 29.2305 39.3138 30.6178 39.9378C30.7665 40.0032 30.855 40.157 30.8403 40.3183C30.8255 40.4796 30.7085 40.6145 30.5514 40.6514C27.3961 41.4113 25.1917 44.2055 25.1917 47.4488L25.1928 47.9979L24.4338 48L24.4327 47.4498C24.4327 44.156 26.4811 41.2796 29.513 40.1739C28.3133 39.318 27.5753 37.9246 27.5753 36.4227C27.5753 34.0068 29.4434 32.019 31.8133 31.825V20.5955C31.8133 20.3858 31.983 20.2161 32.1928 20.2161H48.0061C48.2159 20.2161 48.3856 20.3858 48.3856 20.5955ZM47.6266 24.137H32.5723V31.8261C34.9401 32.02 36.8072 34.0079 36.8072 36.4237C36.8072 37.0203 36.6912 37.5989 36.4751 38.1344H47.6266V24.137ZM47.6266 20.975H32.5723V23.3781H47.6266V20.975ZM38.5181 27.5942H34.3013V28.3531H38.5181V27.5942ZM40.2471 33.7707C40.2471 32.1086 41.5996 30.7563 43.2621 30.7563C44.9247 30.7563 46.2772 32.1086 46.2772 33.7707C46.2772 35.4329 44.9247 36.7852 43.2621 36.7852C41.5996 36.7852 40.2471 35.4329 40.2471 33.7707ZM45.0986 32.4701L43.6406 33.9278L43.6364 35.9884C44.7012 35.8082 45.5171 34.8859 45.5171 33.7707C45.5182 33.2859 45.3601 32.8379 45.0986 32.4701ZM41.0061 33.7707C41.0061 34.8827 41.8168 35.8029 42.8763 35.9873L42.8826 33.6127L44.5609 31.9336C44.193 31.6722 43.746 31.5151 43.2611 31.5151C42.0182 31.5151 41.0061 32.527 41.0061 33.7707ZM23.7591 25.4862H20.5964V26.2451H23.7591V25.4862ZM19.0151 37.8393H22.1777V37.0804H19.0151V37.8393ZM19.0151 35.7312H22.1777V34.9723H19.0151V35.7312ZM38.5181 29.7022H34.3013V30.4611H38.5181V29.7022ZM45.8977 27.5942H41.6808V28.3531H45.8977V27.5942ZM45.8977 25.4862H41.6808V26.2451H45.8977V25.4862ZM38.5181 25.4862H34.3013V26.2451H38.5181V25.4862ZM24.1386 33.8593V42.1144C24.1386 42.6635 23.6927 43.1094 23.1434 43.1094H18.0494C17.5002 43.1094 17.0542 42.6624 17.0542 42.1144V33.8593C17.0542 33.3101 17.5002 32.8643 18.0494 32.8643H23.1434C23.6927 32.8643 24.1386 33.3101 24.1386 33.8593ZM23.3795 39.9473H17.8133V42.1144C17.8133 42.244 17.9197 42.3505 18.0494 42.3505H23.1434C23.2741 42.3505 23.3795 42.244 23.3795 42.1144V39.9473ZM23.3795 33.8593C23.3795 33.7297 23.2731 33.6232 23.1434 33.6232H18.0494C17.9187 33.6232 17.8133 33.7297 17.8133 33.8593V39.1884H23.3795V33.8593Z" fill="#433BCE"/>
</svg>
