<svg width="147" height="30" viewBox="0 0 147 30" fill="none" xmlns="http://www.w3.org/2000/svg">
<g clip-path="url(#clip0_95_327)">
<path d="M13.5967 15.1383C13.5967 15.9217 14.1991 16.5311 14.9736 16.5311C15.7482 16.5311 16.3507 15.9217 16.3507 15.1383C16.3507 14.355 15.7482 13.7456 14.9736 13.7456C14.1991 13.7456 13.5967 14.355 13.5967 15.1383ZM25.215 13.7456C24.4405 13.7456 23.838 14.355 23.838 15.1383C23.838 15.9217 24.4405 16.5311 25.215 16.5311C25.9896 16.5311 26.592 15.9217 26.592 15.1383C26.592 14.355 25.9896 13.7456 25.215 13.7456ZM25.215 24.2781C24.4405 24.2781 23.838 24.8874 23.838 25.6708C23.838 26.4543 24.4405 27.0636 25.215 27.0636C25.9896 27.0636 26.592 26.4543 26.592 25.6708C26.592 24.8874 25.9896 24.2781 25.215 24.2781Z" fill="white"/>
<path d="M28.141 2.16848C26.764 0.427568 24.2682 0.340522 22.8052 1.73326L22.6331 1.90734L22.2888 2.16848C20.9118 3.30008 18.8463 3.21303 17.5554 1.90734V1.8203C17.1251 1.38507 16.5227 1.03689 15.9202 0.862796C15.8341 0.862796 15.662 0.775751 15.5759 0.775751H14.199C14.1129 0.775751 14.0269 0.775751 13.9408 0.862796H13.7687C13.6826 0.862796 13.5965 0.949842 13.5105 0.949842C13.5105 0.949842 13.4244 0.949842 13.4244 1.03689C13.3384 1.03689 13.2523 1.12393 13.1662 1.12393C13.1662 1.12393 13.0802 1.12393 13.0802 1.21098C12.9941 1.29802 12.908 1.29802 12.822 1.38507C12.822 1.38507 12.7359 1.38507 12.7359 1.47212C12.6498 1.55916 12.5638 1.55916 12.4777 1.64621L12.3916 1.73326L12.2195 1.90734L11.8753 2.16848C10.4983 3.30008 8.43283 3.21303 7.22796 1.90734C7.22796 1.90734 7.1419 1.90734 7.1419 1.8203L6.96977 1.64621C6.4534 1.21098 5.85097 0.862796 5.16247 0.775751H4.81823H3.69942H3.61336C3.61336 0.862796 3.52729 0.862796 3.44124 0.949842H3.35517C2.92486 1.12393 2.49455 1.29802 2.15031 1.64621L2.06424 1.73326L1.80606 1.99439C1.46181 2.34258 1.28968 2.7778 1.11756 3.12599C1.11756 3.21303 1.0315 3.30008 1.0315 3.38712C1.0315 3.47416 0.945437 3.56121 0.945437 3.73531C0.859375 4.34462 0.859375 4.95394 1.0315 5.56326C1.0315 5.65031 1.11756 5.73736 1.11756 5.8244V5.91145C1.11756 5.99849 1.20362 6.08554 1.20362 6.17258C1.28968 6.25963 1.28968 6.34667 1.37575 6.52077C1.54787 6.60781 1.71999 6.7819 1.80606 6.86895L1.97818 7.04304L2.15031 7.21713C3.44124 8.52282 3.44124 10.786 2.06424 12.1787C1.89212 12.3528 1.63393 12.6139 1.54787 12.7881C1.46181 12.8751 1.46181 12.9622 1.37575 13.1362V13.2233C1.28968 13.3103 1.28968 13.3974 1.20362 13.4844V13.5714C1.20362 13.6585 1.11756 13.7456 1.11756 13.8326V13.9197C1.11756 14.0067 1.11756 14.0937 1.0315 14.1808V15.4865C1.0315 15.5735 1.0315 15.6606 1.11756 15.7476V15.8346C1.28968 16.444 1.63393 17.0533 2.15031 17.5756C3.52729 18.9683 3.52729 21.2315 2.15031 22.6242L2.06424 22.7113L1.89212 22.8853V22.9724C1.80606 23.0595 1.71999 23.1465 1.71999 23.2335C1.71999 23.2335 1.71999 23.3206 1.63393 23.3206C1.54787 23.4076 1.54787 23.4947 1.46181 23.5817L1.37575 23.6688C1.37575 23.7558 1.28968 23.7558 1.28968 23.8428C1.28968 23.9299 1.20362 23.9299 1.20362 24.017C1.20362 24.104 1.20362 24.104 1.11756 24.191C0.945437 24.5393 0.859375 24.9745 0.859375 25.3226V26.019C0.945437 26.2801 0.945437 26.5412 1.11756 26.7154C1.11756 26.8024 1.20362 26.8895 1.20362 26.8895C1.20362 26.8895 1.20362 26.9765 1.28968 26.9765C1.28968 27.0635 1.37575 27.1506 1.37575 27.2377C1.37575 27.2377 1.37575 27.3247 1.46181 27.3247C1.54787 27.4987 1.63393 27.5858 1.71999 27.6729C1.71999 27.6729 1.71999 27.7599 1.80606 27.7599C1.80606 27.7599 1.80606 27.847 1.89212 27.847C1.89212 27.934 1.97818 27.934 1.97818 27.934L2.06424 28.021C2.15031 28.1081 2.23636 28.1081 2.23636 28.1952L2.32243 28.2822C2.32243 28.2822 2.40849 28.2822 2.40849 28.3692C2.49455 28.4563 2.58061 28.5433 2.66668 28.5433C2.66668 28.5433 2.75273 28.5433 2.75273 28.6304C2.8388 28.7174 2.92486 28.7174 3.01092 28.8045H3.09698C3.18305 28.8915 3.26911 28.8915 3.44124 28.8915C3.52729 28.8915 3.69942 28.9785 3.78548 28.9785H3.87154C3.95761 28.9785 4.04367 28.9785 4.12973 29.0656H4.90428C5.16247 29.0656 5.3346 28.9785 5.59278 28.9785H5.67884C5.76491 28.9785 5.85097 28.8915 5.93703 28.8915H6.02309C6.10916 28.8915 6.19521 28.8045 6.28128 28.8045H6.36734C6.53946 28.7174 6.79765 28.5433 6.96977 28.4563L7.22796 28.1952L7.31402 28.1081C8.69101 26.6283 10.9286 26.6283 12.3056 28.1081C13.8547 29.7619 16.4366 29.675 17.8996 27.847C18.9324 26.5412 18.9324 24.6263 17.8996 23.2335C16.5227 21.4926 14.0269 21.4055 12.5638 22.7983L12.3916 22.9724L12.0475 23.2335C10.6704 24.3651 8.60495 24.2781 7.31402 22.9724L7.1419 22.7983L6.88371 22.4501C5.76491 21.0574 5.85097 18.9683 7.1419 17.6626C7.91645 16.9662 8.26071 16.0087 8.26071 15.0512V14.8771V14.7901C8.26071 13.9197 7.91645 13.0492 7.22796 12.4399C7.22796 12.3528 7.1419 12.3528 7.1419 12.2658L6.88371 11.9176C5.76491 10.5249 5.85097 8.43577 7.1419 7.13009L7.22796 7.04304L7.31402 6.95599C8.69101 5.47622 10.9286 5.47622 12.3056 6.95599L12.3916 7.04304L12.4777 7.13009L12.6498 7.30418C12.7359 7.30418 12.7359 7.39122 12.822 7.39122C12.908 7.39122 12.908 7.47827 12.9941 7.47827C13.0802 7.47827 13.0802 7.56531 13.1662 7.56531C13.2523 7.56531 13.2523 7.65236 13.3384 7.65236C13.4244 7.65236 13.4244 7.7394 13.5105 7.7394C13.5965 7.7394 13.5965 7.82646 13.6826 7.82646C13.7687 7.82646 13.7687 7.82646 13.8547 7.9135C13.9408 7.9135 13.9408 7.9135 14.0269 8.00054H15.4899C15.5759 8.00054 15.662 8.00054 15.7481 7.9135H15.9202C16.0063 7.9135 16.0923 7.82646 16.1784 7.82646H16.2645C16.3505 7.82646 16.4366 7.7394 16.6087 7.65236C16.953 7.47827 17.2972 7.21713 17.5554 6.95599L17.6414 6.86895C19.0185 5.38917 21.256 5.38917 22.6331 6.86895C24.0961 8.60987 26.764 8.52282 28.141 6.69486C29.1737 5.38917 29.1737 3.47416 28.141 2.16848Z" fill="white"/>
<path d="M47.7631 12.9622C47.2467 12.4399 46.8165 12.0917 46.214 11.8305C45.6976 11.5695 45.0952 11.3953 44.3206 11.3953C43.6321 11.3953 42.9436 11.5695 42.4272 11.8305C41.9108 12.0917 41.4806 12.4399 41.1364 12.9622C40.7921 13.3974 40.5339 13.9197 40.3618 14.5289C40.1896 15.1383 40.1036 15.7476 40.1036 16.357C40.1036 16.9662 40.1896 17.5756 40.4478 18.185C40.62 18.7942 40.9642 19.2294 41.3085 19.6646C41.6527 20.0999 42.169 20.4481 42.6854 20.7092C43.2018 20.9704 43.8043 21.0574 44.4927 21.0574C45.2673 21.0574 45.8697 20.8833 46.3861 20.6222C46.9025 20.3611 47.4188 20.0129 47.8491 19.4906L49.6565 21.4056C48.968 22.189 48.1934 22.7113 47.3327 23.0595C46.4722 23.4076 45.5255 23.5817 44.4927 23.5817C43.46 23.5817 42.4272 23.4076 41.5667 23.0595C40.706 22.7113 39.9314 22.189 39.329 21.5797C38.7266 20.9704 38.2102 20.1869 37.866 19.3165C37.5217 18.446 37.3496 17.4015 37.3496 16.357C37.3496 15.3124 37.5217 14.2679 37.866 13.3974C38.2102 12.527 38.7266 11.7435 39.329 11.0472C39.9314 10.4378 40.706 9.91554 41.5667 9.56738C42.4272 9.2192 43.46 9.04511 44.4927 9.04511C45.5255 9.04511 46.4722 9.2192 47.3327 9.56738C48.2795 9.91554 49.054 10.5249 49.7425 11.2213L47.7631 12.9622ZM53.6153 16.1829C53.6153 16.8792 53.7014 17.5756 53.9596 18.0979C54.1317 18.7071 54.476 19.2294 54.8202 19.6646C55.1644 20.0999 55.6808 20.4481 56.1972 20.6222C56.7135 20.8833 57.4021 20.9704 58.0905 20.9704C58.779 20.9704 59.3815 20.8833 59.9839 20.6222C60.5002 20.3611 61.0166 20.0129 61.3609 19.6646C61.7051 19.2294 62.0494 18.7071 62.2215 18.0979C62.3937 17.4885 62.5658 16.8792 62.5658 16.1829C62.5658 15.4865 62.4797 14.7901 62.2215 14.2679C62.0494 13.6585 61.7051 13.1362 61.3609 12.701C61.0166 12.2658 60.5002 11.9176 59.9839 11.7435C59.4675 11.4824 58.779 11.3953 58.0905 11.3953C57.4021 11.3953 56.7996 11.4824 56.1972 11.7435C55.6808 12.0047 55.1644 12.3528 54.8202 12.701C54.476 13.1362 54.1317 13.6585 53.9596 14.2679C53.7874 14.8772 53.6153 15.4865 53.6153 16.1829ZM50.8613 16.1829C50.8613 15.1383 51.0334 14.1808 51.3777 13.3103C51.722 12.4399 52.2383 11.6565 52.9268 10.9601C53.6153 10.2638 54.3038 9.74147 55.2504 9.39329C56.1111 9.04511 57.0578 8.78397 58.0905 8.78397C59.1233 8.78397 60.07 8.95806 60.9305 9.39329C61.7912 9.74147 62.5658 10.2638 63.2542 10.9601C63.9427 11.6565 64.373 12.4399 64.8034 13.3103C65.1476 14.1808 65.3198 15.1383 65.3198 16.1829C65.3198 17.2274 65.1476 18.185 64.8034 19.0554C64.4591 19.9258 63.9427 20.7092 63.2542 21.4056C62.5658 22.102 61.8773 22.5372 60.9305 22.9724C60.07 23.3206 59.1233 23.5817 58.0905 23.5817C57.0578 23.5817 56.1111 23.4076 55.2504 22.9724C54.3899 22.6242 53.6153 22.102 52.9268 21.4056C52.2383 20.7092 51.808 20.0129 51.3777 19.0554C51.1195 18.185 50.8613 17.2274 50.8613 16.1829ZM67.9877 23.2336H70.5695V9.30625H67.9877V23.2336ZM67.3852 4.25759C67.3852 3.73532 67.5574 3.30009 67.9016 2.86486C68.2458 2.51668 68.6761 2.25554 69.1925 2.25554C69.7089 2.25554 70.1392 2.42964 70.4835 2.86486C70.8277 3.21305 70.9998 3.73532 70.9998 4.25759C70.9998 4.77987 70.8277 5.2151 70.4835 5.65032C70.1392 5.99851 69.7089 6.25964 69.1925 6.25964C68.6761 6.25964 68.2458 6.08556 67.9016 5.65032C67.5574 5.30214 67.3852 4.77987 67.3852 4.25759ZM74.1841 9.30625H76.7659V11.4824H76.852C77.1963 10.699 77.7127 10.0897 78.5733 9.6544C79.3478 9.2192 80.2945 8.95806 81.4133 8.95806C82.1018 8.95806 82.7042 9.04511 83.3067 9.30625C83.9091 9.48034 84.4254 9.82855 84.8558 10.2638C85.2861 10.699 85.6303 11.2213 85.9746 11.9176C86.2328 12.614 86.4049 13.3974 86.4049 14.3549V23.3206H83.8231V15.0512C83.8231 14.442 83.737 13.8326 83.5649 13.3974C83.3927 12.9622 83.1346 12.527 82.8764 12.2658C82.6182 12.0047 82.2739 11.7435 81.8436 11.6565C81.4994 11.5695 81.0691 11.4824 80.6388 11.4824C80.1224 11.4824 79.606 11.5695 79.1757 11.7435C78.7454 11.9176 78.3151 12.1787 77.9708 12.614C77.6266 12.9622 77.3684 13.4845 77.1963 14.0937C77.0241 14.7031 76.9381 15.3995 76.9381 16.1829V23.4076H74.3562V9.30625H74.1841ZM95.9574 21.0574C96.6465 21.0574 97.2488 20.9704 97.851 20.7092C98.4533 20.4481 98.8838 20.0999 99.3143 19.6646C99.6588 19.2294 100.002 18.7071 100.175 18.0979C100.347 17.4885 100.519 16.8792 100.519 16.0958C100.519 15.3995 100.433 14.7031 100.175 14.0937C100.002 13.4845 99.6588 12.9622 99.3143 12.527C98.8838 12.0917 98.4533 11.7435 97.851 11.4824C97.2488 11.2213 96.6465 11.1342 95.9574 11.1342C95.2692 11.1342 94.6669 11.2213 94.0646 11.4824C93.4623 11.7435 93.0318 12.0917 92.6013 12.527C92.2568 12.9622 91.9131 13.4845 91.7404 14.0937C91.5686 14.7031 91.3968 15.3124 91.3968 16.0958C91.3968 16.7922 91.4827 17.4885 91.7404 18.0979C91.9131 18.7071 92.2568 19.2294 92.6013 19.6646C92.9459 20.0999 93.4623 20.4481 94.0646 20.7092C94.5809 20.8833 95.2692 21.0574 95.9574 21.0574ZM103.101 23.1465H100.519V21.1444H100.433C99.9166 21.9279 99.2284 22.4501 98.3674 22.8853C97.5065 23.3206 96.5605 23.4947 95.6137 23.4947C94.5809 23.4947 93.5482 23.3206 92.6873 22.9724C91.8272 22.6242 91.0522 22.102 90.4499 21.4056C89.8473 20.7092 89.331 19.9258 89.0728 19.0554C88.7286 18.185 88.5565 17.2274 88.5565 16.1829C88.5565 15.1383 88.7286 14.1808 89.0728 13.2233C89.4171 12.3528 89.8473 11.5695 90.4499 10.873C91.0522 10.1767 91.8272 9.6544 92.6873 9.30625C93.5482 8.95806 94.495 8.78397 95.6137 8.78397C96.5605 8.78397 97.5065 8.95806 98.3674 9.39329C99.2284 9.82855 99.9166 10.4378 100.347 11.1342H100.433V0.688721H103.015L103.101 23.1465ZM116.268 15.0512C116.268 14.442 116.182 13.9197 116.01 13.3974C115.838 12.8751 115.58 12.4399 115.235 12.0917C114.892 11.7435 114.461 11.4824 114.031 11.2213C113.514 11.0472 112.998 10.873 112.31 10.873C111.707 10.873 111.105 10.9601 110.589 11.2213C110.072 11.4824 109.642 11.7435 109.211 12.1787C108.867 12.527 108.523 12.9622 108.35 13.4845C108.179 14.0068 108.007 14.442 108.007 14.8772H116.268V15.0512ZM108.007 17.2274C108.007 17.8367 108.179 18.359 108.436 18.8813C108.695 19.4036 109.04 19.8388 109.469 20.1869C109.9 20.5352 110.416 20.7963 110.932 20.9704C111.535 21.1444 112.051 21.2315 112.653 21.2315C113.428 21.2315 114.202 21.0574 114.806 20.6222C115.408 20.274 115.924 19.7517 116.441 19.1424L118.42 20.7092C116.957 22.6242 114.892 23.5817 112.31 23.5817C111.191 23.5817 110.244 23.4076 109.383 23.0595C108.523 22.7113 107.748 22.189 107.146 21.4926C106.544 20.7963 106.027 20.0999 105.769 19.1424C105.425 18.2719 105.252 17.3144 105.252 16.2699C105.252 15.2254 105.425 14.2679 105.769 13.3974C106.113 12.527 106.63 11.7435 107.232 11.0472C107.834 10.3508 108.609 9.91554 109.469 9.48034C110.33 9.13215 111.277 8.95806 112.31 8.95806C113.514 8.95806 114.547 9.13215 115.408 9.56738C116.268 10.0026 116.957 10.5249 117.473 11.2213C117.99 11.9176 118.42 12.701 118.678 13.5715C118.937 14.442 119.023 15.3124 119.023 16.2699V17.2274H108.007ZM129.177 12.7881C128.834 12.4399 128.489 12.0917 128.059 11.8305C127.628 11.5695 127.026 11.3953 126.424 11.3953C125.821 11.3953 125.305 11.5695 124.789 11.8305C124.358 12.0917 124.1 12.4399 124.1 12.9622C124.1 13.3974 124.272 13.7456 124.53 13.9197C124.789 14.1808 125.132 14.3549 125.477 14.5289C125.821 14.7031 126.252 14.7901 126.596 14.8772C127.026 14.9642 127.371 15.0512 127.628 15.0512C128.145 15.2254 128.747 15.3124 129.177 15.5735C129.694 15.7476 130.124 16.0087 130.469 16.357C130.813 16.7052 131.071 17.0533 131.329 17.4885C131.502 17.9238 131.673 18.446 131.673 19.1424C131.673 19.9258 131.502 20.6222 131.157 21.1444C130.813 21.6667 130.383 22.189 129.867 22.5372C129.35 22.8853 128.747 23.1465 128.059 23.3206C127.371 23.4947 126.681 23.5817 126.079 23.5817C124.961 23.5817 123.928 23.4076 123.067 23.0595C122.207 22.7113 121.432 22.102 120.744 21.1444L122.723 19.4906C123.154 19.9258 123.583 20.274 124.1 20.6222C124.616 20.9704 125.219 21.1444 125.993 21.1444C126.338 21.1444 126.681 21.1444 127.026 21.0574C127.371 20.9704 127.628 20.8833 127.887 20.7092C128.145 20.5352 128.317 20.3611 128.489 20.1869C128.661 19.9258 128.747 19.6646 128.747 19.4036C128.747 19.0554 128.661 18.7071 128.403 18.446C128.145 18.185 127.887 18.0108 127.542 17.8367C127.198 17.6627 126.854 17.5756 126.51 17.4885L125.477 17.2274C124.961 17.0533 124.358 16.9662 123.928 16.7922C123.411 16.6181 122.981 16.3569 122.637 16.0958C122.293 15.8347 121.948 15.3995 121.69 14.9642C121.432 14.5289 121.346 13.9197 121.346 13.3103C121.346 12.614 121.519 11.9176 121.776 11.3953C122.035 10.873 122.465 10.4378 122.981 10.0897C123.497 9.74147 124.014 9.48034 124.616 9.30625C125.219 9.13215 125.907 9.04511 126.51 9.04511C127.457 9.04511 128.317 9.2192 129.177 9.56738C130.038 9.91554 130.727 10.5249 131.243 11.3083L129.177 12.7881ZM134.169 1.0369H136.751V15.1383L142.603 9.2192H146.132L139.85 15.4865L146.734 22.9724H143.034L136.751 15.8347V22.9724H134.169V1.0369Z" fill="white"/>
</g>
<defs>
<clipPath id="clip0_95_327">
<rect width="145.875" height="28.638" fill="white" transform="translate(0.859375 0.688721)"/>
</clipPath>
</defs>
</svg>
