<svg width="59" height="59" viewBox="0 0 59 59" fill="none" xmlns="http://www.w3.org/2000/svg">
<path d="M29.5 0.625057C23.7891 0.625057 18.2064 2.31855 13.4579 5.49137C8.70945 8.6642 5.00847 13.1739 2.82299 18.4501C0.637511 23.7263 0.0656897 29.5321 1.17984 35.1333C2.29399 40.7345 5.04406 45.8795 9.0823 49.9178C13.1205 53.956 18.2656 56.7061 23.8668 57.8202C29.468 58.9344 35.2738 58.3625 40.55 56.1771C45.8262 53.9916 50.3359 50.2906 53.5087 45.5421C56.6815 40.7937 58.375 35.211 58.375 29.5001C58.3924 25.7033 57.6574 21.9407 56.2124 18.4295C54.7675 14.9184 52.6412 11.7284 49.9565 9.0436C47.2717 6.35885 44.0816 4.23259 40.5705 2.78764C37.0594 1.34269 33.2968 0.60768 29.5 0.625057ZM43.5438 17.2938L34.75 34.7501L17.2938 43.5438C17.0376 43.6328 16.7615 43.6478 16.4972 43.5871C16.2329 43.5265 15.991 43.3926 15.7992 43.2008C15.6075 43.0091 15.4736 42.7672 15.4129 42.5029C15.3523 42.2385 15.3673 41.9625 15.4563 41.7063L24.25 24.2501L41.7063 15.4563C41.9624 15.3673 42.2385 15.3523 42.5028 15.413C42.7672 15.4736 43.009 15.6075 43.2008 15.7993C43.3926 15.991 43.5264 16.2329 43.5871 16.4972C43.6478 16.7616 43.6327 17.0376 43.5438 17.2938ZM29.5 26.8751C28.9808 26.8751 28.4733 27.029 28.0416 27.3174C27.61 27.6059 27.2735 28.0159 27.0748 28.4955C26.8761 28.9752 26.8242 29.503 26.9255 30.0122C27.0267 30.5214 27.2767 30.9891 27.6439 31.3562C28.011 31.7233 28.4787 31.9733 28.9879 32.0746C29.4971 32.1759 30.0249 32.1239 30.5046 31.9252C30.9842 31.7266 31.3942 31.3901 31.6826 30.9584C31.9711 30.5267 32.125 30.0192 32.125 29.5001C32.125 28.8039 31.8484 28.1362 31.3562 27.6439C30.8639 27.1516 30.1962 26.8751 29.5 26.8751Z" fill="#0065EB"/>
</svg>
