<svg width="29" height="22" viewBox="0 0 29 22" fill="none" xmlns="http://www.w3.org/2000/svg">
<path d="M23.6933 2.10665C21.92 1.27998 20 0.67998 18 0.333313C17.9825 0.332752 17.965 0.336043 17.9489 0.342954C17.9328 0.349865 17.9183 0.360229 17.9067 0.373314C17.6667 0.813314 17.3867 1.38665 17.2 1.82665C15.0787 1.50665 12.9213 1.50665 10.8 1.82665C10.6133 1.37331 10.3333 0.813314 10.08 0.373314C10.0667 0.346647 10.0267 0.333313 9.98666 0.333313C7.98666 0.67998 6.07999 1.27998 4.29333 2.10665C4.27999 2.10665 4.26666 2.11998 4.25333 2.13331C0.62666 7.55998 -0.37334 12.84 0.119994 18.0666C0.119994 18.0933 0.133327 18.12 0.159993 18.1333C2.55999 19.8933 4.86666 20.96 7.14666 21.6666C7.18666 21.68 7.22666 21.6666 7.23999 21.64C7.77333 20.9066 8.25333 20.1333 8.66666 19.32C8.69333 19.2666 8.66666 19.2133 8.61333 19.2C7.85333 18.9066 7.13333 18.56 6.42666 18.16C6.37333 18.1333 6.37333 18.0533 6.41333 18.0133C6.55999 17.9066 6.70666 17.7866 6.85333 17.68C6.87999 17.6533 6.91999 17.6533 6.94666 17.6666C11.5333 19.76 16.48 19.76 21.0133 17.6666C21.04 17.6533 21.08 17.6533 21.1067 17.68C21.2533 17.8 21.4 17.9066 21.5467 18.0266C21.6 18.0666 21.6 18.1466 21.5333 18.1733C20.84 18.5866 20.1067 18.92 19.3467 19.2133C19.2933 19.2266 19.28 19.2933 19.2933 19.3333C19.72 20.1466 20.2 20.92 20.72 21.6533C20.76 21.6666 20.8 21.68 20.84 21.6666C23.1333 20.96 25.44 19.8933 27.84 18.1333C27.8667 18.12 27.88 18.0933 27.88 18.0666C28.4667 12.0266 26.9067 6.78665 23.7467 2.13331C23.7333 2.11998 23.72 2.10665 23.6933 2.10665ZM9.35999 14.88C7.98666 14.88 6.83999 13.6133 6.83999 12.0533C6.83999 10.4933 7.95999 9.22665 9.35999 9.22665C10.7733 9.22665 11.8933 10.5066 11.88 12.0533C11.88 13.6133 10.76 14.88 9.35999 14.88ZM18.6533 14.88C17.28 14.88 16.1333 13.6133 16.1333 12.0533C16.1333 10.4933 17.2533 9.22665 18.6533 9.22665C20.0667 9.22665 21.1867 10.5066 21.1733 12.0533C21.1733 13.6133 20.0667 14.88 18.6533 14.88Z" fill="white"/>
</svg>
