<svg width="64" height="64" viewBox="0 0 64 64" fill="none" xmlns="http://www.w3.org/2000/svg">
<g opacity="0.1">
<rect width="64" height="64" rx="20" fill="#E8F2FF"/>
<rect width="64" height="64" rx="20" fill="#F8F9FD"/>
</g>
<path d="M31.5382 48C28.7334 48 26.0545 47.2334 23.7923 45.7841L24.2112 45.1327C26.3484 46.5012 28.882 47.2237 31.5393 47.2237C34.1277 47.2237 36.7312 46.4808 38.8696 45.1306L39.2841 45.7863C37.0219 47.214 34.272 48 31.5382 48ZM44.4588 43.6931C42.4637 43.6931 40.841 42.0694 40.841 40.0754C40.841 38.0813 42.4647 36.4576 44.4588 36.4576C46.4529 36.4576 48.0766 38.0813 48.0766 40.0754C48.0766 42.0694 46.454 43.6931 44.4588 43.6931ZM44.4588 37.2328C42.8911 37.2328 41.6163 38.5077 41.6163 40.0754C41.6163 41.6431 42.8911 42.9179 44.4588 42.9179C46.0265 42.9179 47.3013 41.6431 47.3013 40.0754C47.3013 38.5077 46.0265 37.2328 44.4588 37.2328ZM22.9245 43.6931H15.3875C15.2486 43.6931 15.1205 43.6189 15.0515 43.4983C14.9826 43.3777 14.9826 43.2291 15.0526 43.1096L18.8211 36.6493C18.96 36.4113 19.352 36.4113 19.4909 36.6493L23.2594 43.1096C23.3293 43.2291 23.3293 43.3777 23.2604 43.4983C23.1915 43.6189 23.0634 43.6931 22.9245 43.6931ZM16.0626 42.9179H22.2494L19.156 37.6151L16.0626 42.9179ZM37.3094 40.0754H36.5342V38.2633C36.5342 35.9376 34.9557 33.9392 32.6957 33.404C32.5342 33.3664 32.4147 33.2285 32.3996 33.0638C32.3845 32.898 32.4761 32.7408 32.6279 32.673C33.5958 32.2423 34.2203 31.2807 34.2203 30.2234C34.2203 28.7451 33.0176 27.5424 31.5393 27.5424C30.061 27.5424 28.8583 28.7451 28.8583 30.2234C28.8583 31.2807 29.4838 32.2423 30.4518 32.673C30.6036 32.7408 30.6952 32.898 30.6801 33.0627C30.665 33.2285 30.5455 33.3664 30.384 33.404C28.1229 33.9403 26.5444 35.9376 26.5444 38.2633V40.0754H25.7692V38.2633C25.7692 35.8719 27.2141 33.782 29.3729 32.9141C28.5708 32.267 28.0841 31.2829 28.0841 30.2234C28.0841 28.3176 29.6346 26.7672 31.5404 26.7672C33.4472 26.7672 34.9977 28.3176 34.9977 30.2234C34.9977 31.2829 34.511 32.267 33.7089 32.9141C35.8677 33.782 37.3127 35.873 37.3127 38.2633V40.0754H37.3094ZM45.8812 34.7209L45.107 34.6616C45.1339 34.316 45.1469 33.9661 45.1469 33.614C45.1469 28.5448 42.3398 23.9311 37.8187 21.5752L38.1762 20.8872C42.9557 23.3787 45.9231 28.2552 45.9231 33.6151C45.9231 33.9887 45.9092 34.3558 45.8812 34.7209ZM17.1953 34.7209C17.1673 34.3558 17.1533 33.9887 17.1533 33.6151C17.1533 28.2315 20.1207 23.3411 24.8981 20.8506L25.2567 21.5386C20.7366 23.8945 17.9285 28.5222 17.9285 33.6151C17.9285 33.9672 17.9425 34.316 17.9684 34.6627L17.1953 34.7209ZM34.7684 23.2355H28.3081C28.0938 23.2355 27.9204 23.0622 27.9204 22.8479V16.3876C27.9204 16.1734 28.0938 16 28.3081 16H34.7684C34.9827 16 35.156 16.1734 35.156 16.3876V22.8479C35.156 23.0622 34.9827 23.2355 34.7684 23.2355ZM28.6957 22.4603H34.3807V16.7752H28.6957V22.4603Z" fill="#327EE8"/>
</svg>
