<svg width="32" height="32" viewBox="0 0 32 32" fill="none" xmlns="http://www.w3.org/2000/svg">
<path d="M27.2874 5.33333L17.7168 12.4012L19.4965 8.23587L27.2874 5.33333Z" fill="#E17726" stroke="#E17726" stroke-width="0.25" stroke-linecap="round" stroke-linejoin="round"/>
<path d="M5.21155 5.33333L14.6969 12.4671L13.0024 8.23586L5.21155 5.33333Z" fill="#E27625" stroke="#E27625" stroke-width="0.25" stroke-linecap="round" stroke-linejoin="round"/>
<path d="M23.8414 21.7214L21.2949 25.604L26.7476 27.1024L28.3096 21.8062L23.8414 21.7214Z" fill="#E27625" stroke="#E27625" stroke-width="0.25" stroke-linecap="round" stroke-linejoin="round"/>
<path d="M4.19861 21.8062L5.75109 27.1024L11.1943 25.604L8.65729 21.7214L4.19861 21.8062Z" fill="#E27625" stroke="#E27625" stroke-width="0.25" stroke-linecap="round" stroke-linejoin="round"/>
<path d="M10.9013 15.1626L9.38672 17.4432L14.7826 17.6882L14.6027 11.8926L10.9013 15.1626Z" fill="#E27625" stroke="#E27625" stroke-width="0.25" stroke-linecap="round" stroke-linejoin="round"/>
<path d="M21.598 15.1622L17.8399 11.8262L17.7168 17.6878L23.1126 17.4428L21.598 15.1622Z" fill="#E27625" stroke="#E27625" stroke-width="0.25" stroke-linecap="round" stroke-linejoin="round"/>
<path d="M11.1947 25.6038L14.4606 24.0301L11.6491 21.8438L11.1947 25.6038Z" fill="#E27625" stroke="#E27625" stroke-width="0.25" stroke-linecap="round" stroke-linejoin="round"/>
<path d="M18.0391 24.0301L21.2955 25.6038L20.8505 21.8438L18.0391 24.0301Z" fill="#E27625" stroke="#E27625" stroke-width="0.25" stroke-linecap="round" stroke-linejoin="round"/>
<path d="M21.2955 25.6043L18.0391 24.0306L18.3041 26.1415L18.2757 27.0368L21.2955 25.6043Z" fill="#D5BFB2" stroke="#D5BFB2" stroke-width="0.25" stroke-linecap="round" stroke-linejoin="round"/>
<path d="M11.1947 25.6043L14.224 27.0368L14.205 26.1415L14.4606 24.0306L11.1947 25.6043Z" fill="#D5BFB2" stroke="#D5BFB2" stroke-width="0.25" stroke-linecap="round" stroke-linejoin="round"/>
<path d="M14.2803 20.4493L11.5729 19.6577L13.4851 18.7812L14.2803 20.4493Z" fill="#233447" stroke="#233447" stroke-width="0.25" stroke-linecap="round" stroke-linejoin="round"/>
<path d="M18.2188 20.4493L19.014 18.7812L20.9356 19.6577L18.2188 20.4493Z" fill="#233447" stroke="#233447" stroke-width="0.25" stroke-linecap="round" stroke-linejoin="round"/>
<path d="M11.1946 25.604L11.6679 21.7214L8.65759 21.8062L11.1946 25.604Z" fill="#CC6228" stroke="#CC6228" stroke-width="0.25" stroke-linecap="round" stroke-linejoin="round"/>
<path d="M20.8314 21.7214L21.2953 25.604L23.8418 21.8062L20.8314 21.7214Z" fill="#CC6228" stroke="#CC6228" stroke-width="0.25" stroke-linecap="round" stroke-linejoin="round"/>
<path d="M23.1126 17.4427L17.7168 17.6877L18.2185 20.449L19.0137 18.7809L20.9354 19.6573L23.1126 17.4427Z" fill="#CC6228" stroke="#CC6228" stroke-width="0.25" stroke-linecap="round" stroke-linejoin="round"/>
<path d="M11.5735 19.6573L13.4857 18.7809L14.2809 20.449L14.7826 17.6877L9.38672 17.4427L11.5735 19.6573Z" fill="#CC6228" stroke="#CC6228" stroke-width="0.25" stroke-linecap="round" stroke-linejoin="round"/>
<path d="M9.38672 17.4427L11.6492 21.8436L11.5734 19.6573L9.38672 17.4427Z" fill="#E27525" stroke="#E27525" stroke-width="0.25" stroke-linecap="round" stroke-linejoin="round"/>
<path d="M20.9354 19.6573L20.8502 21.8436L23.1127 17.4427L20.9354 19.6573Z" fill="#E27525" stroke="#E27525" stroke-width="0.25" stroke-linecap="round" stroke-linejoin="round"/>
<path d="M14.7824 17.6882L14.2806 20.4494L14.9149 23.71L15.0569 19.4127L14.7824 17.6882Z" fill="#E27525" stroke="#E27525" stroke-width="0.25" stroke-linecap="round" stroke-linejoin="round"/>
<path d="M17.7169 17.6882L17.4518 19.4034L17.5843 23.71L18.2186 20.4494L17.7169 17.6882Z" fill="#E27525" stroke="#E27525" stroke-width="0.25" stroke-linecap="round" stroke-linejoin="round"/>
<path d="M18.2188 20.4492L17.5846 23.7098L18.039 24.0302L20.8505 21.8439L20.9357 19.6575L18.2188 20.4492Z" fill="#F5841F" stroke="#F5841F" stroke-width="0.25" stroke-linecap="round" stroke-linejoin="round"/>
<path d="M11.5729 19.6575L11.6487 21.8439L14.4601 24.0302L14.9145 23.7098L14.2803 20.4492L11.5729 19.6575Z" fill="#F5841F" stroke="#F5841F" stroke-width="0.25" stroke-linecap="round" stroke-linejoin="round"/>
<path d="M18.2756 27.0366L18.3039 26.1413L18.0579 25.934H14.4417L14.205 26.1413L14.224 27.0366L11.1947 25.6042L12.2549 26.4712L14.4038 27.9507H18.0862L20.2446 26.4712L21.2953 25.6042L18.2756 27.0366Z" fill="#C0AC9D" stroke="#C0AC9D" stroke-width="0.25" stroke-linecap="round" stroke-linejoin="round"/>
<path d="M18.039 24.03L17.5846 23.7096H14.915L14.4607 24.03L14.2051 26.141L14.4418 25.9336H18.0579L18.3041 26.141L18.039 24.03Z" fill="#161616" stroke="#161616" stroke-width="0.25" stroke-linecap="round" stroke-linejoin="round"/>
<path d="M27.6948 12.8629L28.4994 8.9615L27.2877 5.33333L18.0391 12.1656L21.5984 15.1623L26.6251 16.6231L27.7326 15.332L27.2499 14.9833L28.0166 14.286L27.4297 13.8336L28.1965 13.2493L27.6948 12.8629Z" fill="#763E1A" stroke="#763E1A" stroke-width="0.25" stroke-linecap="round" stroke-linejoin="round"/>
<path d="M4 8.9615L4.81411 12.8629L4.29346 13.2493L5.06971 13.8336L4.48279 14.286L5.24957 14.9833L4.76678 15.332L5.87435 16.6231L10.9011 15.1623L14.4604 12.1656L5.2117 5.33333L4 8.9615Z" fill="#763E1A" stroke="#763E1A" stroke-width="0.25" stroke-linecap="round" stroke-linejoin="round"/>
<path d="M26.6247 16.6228L21.5981 15.1621L23.1127 17.4427L20.8502 21.8436L23.8416 21.8059H28.3097L26.6247 16.6228Z" fill="#F5841F" stroke="#F5841F" stroke-width="0.25" stroke-linecap="round" stroke-linejoin="round"/>
<path d="M10.9008 15.1621L5.87416 16.6228L4.19861 21.8059H8.65729L11.6486 21.8436L9.38621 17.4427L10.9008 15.1621Z" fill="#F5841F" stroke="#F5841F" stroke-width="0.25" stroke-linecap="round" stroke-linejoin="round"/>
<path d="M17.7168 17.6878L18.0387 12.1654L19.4965 8.23567H13.0026L14.4604 12.1654L14.7822 17.6878L14.9053 19.4217L14.9148 23.7096H17.5843L17.5938 19.4217L17.7168 17.6878Z" fill="#F5841F" stroke="#F5841F" stroke-width="0.25" stroke-linecap="round" stroke-linejoin="round"/>
</svg>
