<svg width="147" height="38" viewBox="0 0 147 38" fill="none" xmlns="http://www.w3.org/2000/svg">
<mask id="mask0_95_248" style="mask-type:alpha" maskUnits="userSpaceOnUse" x="0" y="0" width="43" height="38">
<path d="M0.466309 0.198486H42.7364V37.9358H0.466309V0.198486Z" fill="white"/>
</mask>
<g mask="url(#mask0_95_248)">
<path fill-rule="evenodd" clip-rule="evenodd" d="M4.3847 8.26426C4.73984 8.0607 5.19487 8.18136 5.4004 8.53345C5.60526 8.88627 5.48371 9.33673 5.12791 9.5398C4.77233 9.74287 4.31773 9.62229 4.11199 9.27061C3.90734 8.91779 4.02867 8.46741 4.3847 8.26426ZM3.37298 29.5177C2.95131 29.7592 2.41208 29.6161 2.16832 29.1983C1.92479 28.7808 2.06932 28.2469 2.49165 28.0053C2.9133 27.7648 3.45232 27.9075 3.69585 28.325C3.93917 28.7427 3.79419 29.2771 3.37298 29.5177ZM13.7821 35.9344L15.2467 36.0088C15.2805 35.7895 15.3647 35.5788 15.4957 35.3954L11.1173 31.6367C11.0793 31.6684 11.0378 31.6977 10.9934 31.7227C10.79 31.8393 10.5596 31.8662 10.3476 31.8152L9.50073 33.8189C9.72925 33.9401 9.9264 34.1236 10.0654 34.3621C10.4643 35.0457 10.2276 35.9198 9.53744 36.3144C8.8468 36.7094 7.96418 36.475 7.56594 35.7915C7.16792 35.1076 7.40395 34.2335 8.09456 33.8392C8.45589 33.6324 8.86981 33.5987 9.23973 33.7108L10.0857 31.7076C9.96708 31.6345 9.86384 31.5316 9.78872 31.4033C9.54587 30.9855 9.68995 30.4513 10.1116 30.2106C10.5337 29.9691 11.0724 30.1123 11.3163 30.5299C11.4842 30.8172 11.4679 31.1609 11.3034 31.425L15.681 35.1833C15.7613 35.108 15.8524 35.0406 15.9525 34.9833C16.6427 34.5886 17.5253 34.8231 17.9234 35.5066C18.3221 36.1896 18.0856 37.0642 17.3955 37.4592C16.7052 37.8532 15.8221 37.619 15.4242 36.9359C15.305 36.7316 15.2425 36.5094 15.2316 36.2879L13.7675 36.2143C13.7162 36.447 13.5706 36.6571 13.3463 36.7863C12.9246 37.0265 12.3854 36.8838 12.1421 36.4665C11.8986 36.0484 12.0431 35.5142 12.4645 35.2734C12.8862 35.0325 13.4256 35.1756 13.6696 35.5928C13.7326 35.7009 13.7693 35.8177 13.7821 35.9344ZM14.6451 6.23083L13.1499 8.93489C13.2767 9.02573 13.3863 9.14363 13.4696 9.28633C13.7852 9.82674 13.5982 10.5184 13.0524 10.83C12.5072 11.1418 11.8089 10.9565 11.4941 10.4166C11.1794 9.87576 11.366 9.18504 11.912 8.87249L11.9525 8.84997L10.247 4.33418C9.76928 4.44799 9.25301 4.24314 8.99444 3.79995C8.67954 3.25958 8.86624 2.56842 9.41232 2.25632C9.9576 1.94423 10.6555 2.12982 10.9706 2.66997C11.2857 3.21034 11.0988 3.90106 10.5527 4.21316L10.5118 4.23591L12.2179 8.75167C12.4484 8.69738 12.6875 8.71642 12.9021 8.8007L14.3965 6.09624C14.3092 6.02904 14.234 5.94435 14.1755 5.84389C13.9315 5.42631 14.0765 4.89206 14.498 4.65175C14.9196 4.41035 15.459 4.55348 15.7026 4.97063C15.9459 5.38866 15.8014 5.92268 15.3797 6.16409C15.1479 6.29671 14.8794 6.31247 14.6451 6.23083ZM11.8221 27.6291C11.5231 27.6365 11.2352 27.6365 10.9607 27.6289C9.18543 27.5796 8.03799 27.2642 7.82914 26.6724L7.8161 26.6361C7.63224 25.9445 8.49301 24.9126 10.0889 23.7402C10.2075 24.4685 10.4177 25.1699 10.7152 25.8314C11.0033 26.4729 11.3741 27.0756 11.8221 27.6291ZM14.9499 28.6871C16.2283 28.5098 17.6146 28.2474 19.0715 27.8994C20.4821 27.5626 21.9504 27.15 23.4416 26.6643C24.5338 26.3083 27.159 25.3919 29.8404 24.1381C29.5434 24.9622 29.1385 25.7005 28.6386 26.3503C28.1749 26.1584 27.6295 26.1759 27.1624 26.4431C26.4839 26.8311 26.1845 27.6205 26.3942 28.3336C25.2182 29.0421 23.8173 29.5168 22.2374 29.7511C22.2193 29.7135 22.199 29.6763 22.178 29.6395C21.6712 28.7705 20.549 28.4726 19.6714 28.9744C19.3046 29.1839 19.0392 29.4997 18.8907 29.8601C17.3709 29.719 16.0482 29.3063 14.9499 28.6871ZM26.527 12.2495C26.4666 12.6428 26.5356 13.0587 26.7515 13.4303C27.2582 14.2991 28.3804 14.5972 29.2585 14.0954C30.1354 13.5936 30.4368 12.4824 29.9301 11.6126C29.4233 10.7444 28.3011 10.447 27.4231 10.9484C27.3085 11.014 27.2021 11.0911 27.1071 11.1762C25.2407 10.3452 23.3011 10.0528 21.3928 10.2673C21.0282 10.3084 20.6646 10.3677 20.3033 10.4457C19.7846 9.61249 18.687 9.33471 17.8248 9.82763C17.1327 10.2228 16.7994 10.9991 16.9388 11.7356C16.0458 12.2379 15.1824 12.8608 14.3631 13.5995C13.5509 14.3305 12.8586 15.0943 12.2794 15.8752C11.8606 15.783 11.4064 15.8397 11.0051 16.0689C10.3724 16.4308 10.0491 17.1213 10.1293 17.798L7.58362 18.5144L7.54251 18.4354C7.42296 18.2305 7.23599 18.0878 7.02627 18.018L7.73677 13.9439C7.94738 13.9537 8.16374 13.9063 8.35998 13.794C8.90603 13.4824 9.09257 12.7908 8.77792 12.2504C8.46278 11.7104 7.76484 11.5249 7.21964 11.8365C6.67356 12.1491 6.48682 12.8398 6.80195 13.3806C6.95201 13.6384 7.19113 13.8157 7.45743 13.896L6.74737 17.9703C6.58162 17.9663 6.413 18.0066 6.25919 18.0951C6.10603 18.1817 5.98736 18.3063 5.90714 18.449L3.14933 17.4372C3.23529 17.1067 3.19508 16.746 3.00988 16.428C2.63352 15.7826 1.79971 15.5611 1.14798 15.9338C0.496046 16.3065 0.272618 17.1325 0.649417 17.7779C1.02533 18.4234 1.85915 18.6448 2.51087 18.2717C2.75308 18.1332 2.93651 17.9322 3.05187 17.7009L5.80813 18.7127C5.76327 18.9287 5.79531 19.1603 5.91488 19.3655C6.17433 19.811 6.74914 19.9631 7.19842 19.7065C7.5361 19.5133 7.70694 19.1445 7.66119 18.784L10.185 18.0736C10.2239 18.21 10.2804 18.3435 10.3555 18.4721C10.4354 18.6098 10.5315 18.7324 10.6396 18.8392C10.409 19.448 10.2406 20.0567 10.131 20.6591C10.0382 21.1712 9.98806 21.6794 9.97948 22.179C7.50185 23.8719 6.16769 25.5795 6.53035 26.9445C6.54626 27.0025 6.56018 27.05 6.573 27.0863C6.99223 28.2734 8.59 28.8873 10.9562 28.953C11.6038 28.9705 12.3176 28.9506 13.086 28.891C13.4342 29.1723 13.8091 29.4323 14.2109 29.6673C15.4957 30.4193 17.0485 30.9173 18.8319 31.0754C18.8725 31.2062 18.9283 31.3339 18.9998 31.4567C19.5066 32.3254 20.6283 32.6233 21.5064 32.1214C21.9639 31.8603 22.2646 31.4318 22.3756 30.9595C24.1875 30.6957 25.7992 30.1383 27.152 29.2973C27.6519 29.5874 28.2907 29.61 28.8285 29.3027C29.1738 29.1058 29.4199 28.8052 29.5511 28.4641L32.962 29.4691C32.9195 29.719 32.9611 29.9836 33.0983 30.22C33.4141 30.7599 34.1118 30.9451 34.6572 30.6334L34.6643 30.6292L36.5633 33.0798C36.4953 33.1557 36.4451 33.2449 36.4141 33.3396L30.5361 32.6176C30.5361 32.4256 30.4868 32.2317 30.3824 32.0538C30.0673 31.5137 29.3699 31.3285 28.8243 31.6406C28.3202 31.9282 28.1224 32.5395 28.3433 33.057L23.0542 36.0762C22.7867 35.7493 22.3103 35.6543 21.9302 35.8716C21.5084 36.113 21.3643 36.647 21.6074 37.0642C21.8511 37.4822 22.3904 37.6249 22.8125 37.3848C23.1915 37.1669 23.3468 36.7118 23.1957 36.3188L28.4841 33.3C28.5539 33.3915 28.6359 33.4696 28.7265 33.5346L27.2315 36.239C26.9966 36.157 26.729 36.1734 26.4969 36.3058C26.0755 36.547 25.9305 37.0813 26.1741 37.4993C26.4173 37.9164 26.9561 38.0602 27.3782 37.8181C27.8003 37.5779 27.9445 37.0436 27.7011 36.6256C27.6432 36.5256 27.5672 36.4409 27.4802 36.3741L28.9751 33.6696C29.2879 33.792 29.6512 33.7764 29.9655 33.5974C30.2426 33.4383 30.4273 33.1816 30.4999 32.8964L36.3786 33.6184C36.3865 33.727 36.4184 33.8355 36.4762 33.9364C36.6818 34.2882 37.1365 34.4091 37.4924 34.2057C37.8479 34.0028 37.9697 33.5521 37.7642 33.1996C37.5664 32.8609 37.1374 32.7353 36.7888 32.9089L34.8886 30.459C35.2495 30.106 35.3392 29.5446 35.0751 29.0897C34.9465 28.8692 34.7549 28.7085 34.5356 28.6157L35.4972 25.2982C35.6951 25.3229 35.9021 25.2875 36.0877 25.1816C36.2793 25.0717 36.4175 24.9045 36.4926 24.7152L38.693 25.208C38.6604 25.4875 38.7139 25.7799 38.8665 26.0421C39.2429 26.6875 40.0769 26.9088 40.7287 26.5361C41.3804 26.1634 41.604 25.3381 41.2277 24.6922C40.8513 24.0466 40.0173 23.8253 39.3655 24.1984C39.067 24.3689 38.8579 24.6344 38.756 24.9344L36.5547 24.4416C36.5677 24.2626 36.5288 24.0774 36.4314 23.9098C36.1723 23.4648 35.5973 23.3122 35.1476 23.5697C34.6988 23.8264 34.5443 24.3958 34.8039 24.8404C34.9051 25.0139 35.0543 25.143 35.2245 25.2205L34.2627 28.5385C34.0141 28.4995 33.7509 28.5417 33.516 28.6761C33.2976 28.8013 33.1372 28.9878 33.0422 29.2005L29.6305 28.194C29.6952 27.8694 29.6625 27.5245 29.5199 27.2056C30.3703 26.1422 30.9893 24.8712 31.3363 23.4024C34.8119 21.6028 37.9068 19.2933 37.2902 16.9717C37.2747 16.9136 37.2601 16.8662 37.248 16.8299C36.9182 15.8953 35.8572 15.3162 34.2663 15.0798C34.2283 14.9835 34.1799 14.8894 34.1213 14.7992C33.6559 14.0847 32.4819 14.0048 31.9951 14.3108C30.4903 15.2554 31.4762 17.8283 33.6817 16.8986C34.1834 16.6869 34.0581 16.59 34.1748 16.3881C35.1943 16.5307 35.84 16.8143 35.9918 17.2434L36.0048 17.2802C36.3658 18.6396 34.2455 20.2598 31.6004 21.6994C31.6462 20.7416 31.4244 20.0559 31.0013 19.5899C31.0282 19.2719 30.9609 18.9427 30.7874 18.6457C30.3367 17.8714 29.337 17.6061 28.5548 18.0533C28.2433 18.231 28.0136 18.4956 27.8781 18.7987C27.1166 18.8674 26.281 19.0377 25.4151 19.2753C23.0178 19.9335 20.3793 21.13 18.6339 21.9816C18.1218 21.5382 17.3627 21.443 16.7406 21.7986C15.9589 22.2449 15.6913 23.2357 16.1424 24.0098C16.5939 24.7836 17.5937 25.0485 18.3749 24.6018C18.9411 24.2783 19.2381 23.6697 19.1868 23.0643C20.8905 22.2333 23.4487 21.0735 25.7407 20.4439C26.4899 20.2388 27.209 20.0913 27.8479 20.0401C27.8781 20.1165 27.9144 20.1909 27.9566 20.2644C28.4081 21.0381 29.4079 21.3031 30.19 20.8565L30.1995 20.8514C30.3471 21.1475 30.4015 21.5336 30.3392 22.0238C30.3246 22.144 30.3073 22.2633 30.2884 22.3804C27.2262 23.8988 23.908 25.108 22.9937 25.4059C21.5163 25.8876 20.084 26.2912 18.7287 26.6144C16.7804 27.0796 14.97 27.3881 13.3903 27.5348C12.7229 26.8944 12.1998 26.1516 11.8329 25.3376C11.5001 24.5981 11.2948 23.7975 11.227 22.9603C15.0392 20.5003 19.277 18.7422 23.6713 17.539C24.1721 18.0826 25.1442 18.1251 25.6335 17.818C26.1239 17.5103 26.2041 17.2654 26.2878 16.8957C26.3838 16.477 26.2914 16.0536 26.0532 15.688L26.0514 15.6863V15.6854L26.0505 15.6841L26.0487 15.6826L26.0478 15.6808L26.0463 15.6791L26.0454 15.6769L26.0445 15.6751L26.035 15.6624L26.0332 15.6607L26.0324 15.6585L26.0307 15.6567L26.0298 15.6552L26.0282 15.653L26.0264 15.6513L26.0255 15.649L26.0092 15.628L26.0083 15.6261L26.0074 15.6243L26.0056 15.6221L26.0048 15.6212L25.9893 15.6007C25.4989 14.9813 24.6158 14.8104 23.9475 15.2298C23.5652 15.4696 23.332 15.8526 23.2717 16.2676C19.0507 17.4214 14.9744 19.08 11.2623 21.3552C11.2822 21.195 11.3063 21.0352 11.3352 20.8735C11.4267 20.3693 11.5662 19.8585 11.7549 19.3467C12.101 19.3736 12.4584 19.301 12.7817 19.1159C13.6316 18.6302 13.9225 17.5543 13.432 16.7128C13.3953 16.6497 13.3554 16.5891 13.312 16.533C13.8349 15.8373 14.4586 15.1549 15.189 14.4979C15.9439 13.817 16.7373 13.246 17.5552 12.7864C18.1291 13.2689 18.9709 13.3685 19.6598 12.9741C20.1751 12.6796 20.4916 12.1751 20.5627 11.6332C20.8825 11.5642 21.205 11.5113 21.5278 11.4749C23.193 11.2876 24.8885 11.5369 26.527 12.2495ZM32.1892 9.82828L32.2004 9.82147L31.047 6.97299C30.6811 7.05376 30.2893 6.89508 30.0906 6.55694C30.0398 6.46808 30.0052 6.37485 29.988 6.28008L26.6428 6.35646C26.6074 6.81082 26.3526 7.24131 25.9246 7.48666C25.2348 7.88126 24.3517 7.64709 23.9528 6.96358C23.8284 6.74975 23.7654 6.51733 23.7604 6.28687L20.363 6.04393C20.309 6.26979 20.1652 6.47355 19.9469 6.59808C19.5247 6.83949 18.9855 6.69635 18.7417 6.27876C18.4986 5.86118 18.643 5.32716 19.0646 5.08576C19.2817 4.96122 19.5312 4.93912 19.7548 5.00434L21.075 2.27886C20.9267 2.18497 20.7981 2.05497 20.7035 1.89345C20.3892 1.35309 20.5766 0.662357 21.1217 0.349824C21.6673 0.038166 22.3652 0.223322 22.6803 0.763254C22.9955 1.30384 22.8081 1.995 22.2625 2.30666C21.9681 2.47562 21.6289 2.49816 21.3298 2.39946L20.0098 5.12537C20.113 5.19671 20.2019 5.29083 20.2688 5.40529C20.3353 5.5191 20.3724 5.641 20.3839 5.764L23.7811 6.00694C23.8509 5.60336 24.0952 5.23196 24.4812 5.01091C24.9586 4.73864 25.5274 4.766 25.965 5.0352L28.1681 2.19439C28.1232 2.14602 28.0819 2.09218 28.0463 2.03221C27.8039 1.61506 27.948 1.08082 28.3692 0.839636C28.7913 0.598231 29.331 0.741805 29.5743 1.15983C29.8178 1.57698 29.6737 2.11143 29.2514 2.3524C28.9769 2.50888 28.6532 2.50341 28.3926 2.36532L26.1904 5.20613C26.2914 5.2998 26.3802 5.40967 26.4528 5.53398C26.5531 5.70666 26.6134 5.89051 26.636 6.0761L29.9809 6.00038C30.0172 5.74233 30.1693 5.50378 30.4134 5.36393C30.8355 5.12274 31.3752 5.26609 31.6179 5.68368C31.8585 6.09667 31.7204 6.62325 31.3095 6.86816L32.463 9.71726C32.6649 9.66629 32.8729 9.67399 33.0654 9.73477L34.6005 6.48909C34.495 6.41796 34.4027 6.32232 34.3343 6.20479C34.0919 5.78676 34.2351 5.25231 34.6572 5.01222C35.0795 4.77059 35.6181 4.91417 35.8617 5.3311C36.105 5.74912 35.9608 6.28292 35.5396 6.52455C35.3238 6.64711 35.0786 6.66987 34.8568 6.60794L33.3218 9.85324C33.4652 9.94334 33.5893 10.0685 33.6802 10.2242C33.706 10.2677 33.7275 10.3135 33.7465 10.3592L39.5961 8.85126C39.5658 8.52211 39.7256 8.18987 40.0338 8.01346C40.4559 7.77271 40.9945 7.91585 41.2389 8.33297C41.4814 8.75078 41.3373 9.28463 40.9152 9.52619C40.8564 9.5599 40.7943 9.58639 40.7313 9.60568L41.5841 15.8526C41.9813 15.8491 42.3697 16.0523 42.583 16.4177C42.8988 16.958 42.7116 17.6488 42.166 17.9613C41.6203 18.2728 40.922 18.0878 40.6078 17.5475C40.3446 17.0973 40.4308 16.542 40.783 16.189L37.9445 12.6231L37.9256 12.6343C37.3801 12.9468 36.6818 12.7617 36.3667 12.2209C36.0515 11.6809 36.2389 10.9893 36.7843 10.6777C37.33 10.3654 38.0283 10.5507 38.3435 11.0911C38.606 11.5417 38.5195 12.0974 38.1673 12.4495L41.0058 16.0155L41.0248 16.0043C41.1136 15.9531 41.2086 15.9154 41.3037 15.8903L40.4506 9.64287C40.1545 9.63436 39.8696 9.47919 39.711 9.20643C39.6952 9.17912 39.6807 9.15133 39.6676 9.12264L33.8183 10.6303C33.8718 11.0489 33.6722 11.4771 33.2804 11.7015C32.7582 11.9994 32.0908 11.823 31.7896 11.3056C31.4875 10.7884 31.6669 10.1268 32.1892 9.82828Z" fill="white"/>
</g>
<mask id="mask1_95_248" style="mask-type:alpha" maskUnits="userSpaceOnUse" x="53" y="6" width="94" height="28">
<path d="M53.9648 6.66272H146.128V33.2851H53.9648V6.66272Z" fill="white"/>
</mask>
<g mask="url(#mask1_95_248)">
<path fill-rule="evenodd" clip-rule="evenodd" d="M140.534 15.3673L146.128 6.904H143.291L139.307 13.1365L135.364 6.904H132.446L138.039 15.4277V20.9759H140.534V15.3673ZM130.31 20.9759L125.201 13.7793L130.109 6.904H127.273L123.752 11.95L120.251 6.904H117.333L122.262 13.8198L117.132 20.9759H119.969L123.691 15.6481L127.393 20.9759H130.31ZM110.148 15.3871H105.299L107.714 9.75875L110.148 15.3871ZM108.9 6.80314H106.607L100.41 20.9759H102.946L104.393 17.5793H111.054L112.482 20.9759H115.097L108.9 6.80314ZM88.1944 20.9759H98.0731V18.7243H90.6691V6.904H88.1944V20.9759ZM79.8622 15.3871H75.0129L77.4271 9.75875L79.8622 15.3871ZM78.6143 6.80314H76.3202L70.1241 20.9759H72.6591L74.1074 17.5793H80.7676L82.1955 20.9759H84.8113L78.6143 6.80314ZM141.057 33.1782H145.4V32.19H142.145V26.9951H141.057V33.1782ZM128.784 30.724H126.653L127.713 28.2495L128.784 30.724ZM128.235 26.9509H127.228L124.505 33.1782H125.618L126.255 31.6864H129.182L129.809 33.1782H130.96L128.235 26.9509ZM113.68 28.0017H115.643V26.9951H110.621V28.0017H112.585V33.1782H113.68V28.0017ZM99.2846 33.1782H100.37V26.9951H99.2846V33.1782ZM88.7697 32.3226V29.7254H86.1353V30.6697H87.7171V31.8292C87.5283 31.9684 87.3071 32.0831 87.051 32.1678C86.7941 32.2542 86.5178 32.2944 86.2229 32.2944C85.9052 32.2944 85.6167 32.2401 85.3615 32.1274C85.1054 32.0167 84.8834 31.8615 84.697 31.6642C84.5123 31.4671 84.3713 31.2314 84.2692 30.9616C84.1687 30.6919 84.1192 30.3978 84.1192 30.0798C84.1192 29.7777 84.1711 29.4959 84.2732 29.23C84.3769 28.9663 84.5187 28.7328 84.697 28.5332C84.8777 28.332 85.0908 28.175 85.3339 28.0601C85.5786 27.9455 85.8428 27.8871 86.1264 27.8871C86.3217 27.8871 86.4992 27.9032 86.6613 27.9375C86.8217 27.9696 86.9724 28.0118 87.1069 28.0683C87.2431 28.1248 87.3727 28.193 87.4951 28.2758C87.6199 28.3583 87.7398 28.4488 87.8589 28.5496L88.5493 27.7301C88.3889 27.5932 88.226 27.4743 88.0583 27.3718C87.8897 27.269 87.7122 27.1804 87.5234 27.11C87.3346 27.0395 87.1296 26.985 86.9092 26.9467C86.6872 26.9085 86.4417 26.8885 86.1702 26.8885C85.7051 26.8885 85.2756 26.9749 84.8834 27.1462C84.4904 27.3172 84.1541 27.5467 83.8713 27.8386C83.5893 28.1305 83.3697 28.471 83.2133 28.8597C83.0569 29.2481 82.9783 29.6609 82.9783 30.0957C82.9783 30.5488 83.0553 30.9717 83.2084 31.3602C83.3616 31.747 83.5779 32.085 83.8591 32.3712C84.1371 32.6549 84.4758 32.8805 84.8704 33.0414C85.2659 33.2048 85.7051 33.2851 86.1872 33.2851C86.4587 33.2851 86.7172 33.2609 86.9651 33.2105C87.2131 33.1601 87.4448 33.0896 87.6596 33.0033C87.8751 32.9147 88.0753 32.81 88.2617 32.6933C88.4464 32.5763 88.6158 32.4515 88.7697 32.3226ZM71.4732 33.1782H72.5615V26.9951H71.4732V33.1782ZM59.9147 30.0957C59.9147 30.4017 59.8645 30.6837 59.7607 30.9395C59.6566 31.1952 59.5127 31.4167 59.3272 31.6018C59.1411 31.7872 58.9162 31.932 58.6511 32.0348C58.3853 32.1376 58.0911 32.19 57.7676 32.19H56.5474V27.9858H57.7676C58.0911 27.9858 58.3853 28.0382 58.6511 28.1448C58.9162 28.2495 59.1411 28.3964 59.3272 28.5856C59.5127 28.775 59.6566 28.9965 59.7607 29.2522C59.8645 29.5077 59.9147 29.7898 59.9147 30.0957ZM61.0551 30.0798C61.0551 29.6429 60.9755 29.2361 60.8176 28.8597C60.6572 28.4811 60.4324 28.1549 60.1403 27.8789C59.8481 27.6031 59.5006 27.3858 59.0976 27.2306C58.6936 27.0738 58.2493 26.9951 57.7676 26.9951H55.4584V33.1782H57.7676C58.2493 33.1782 58.6936 33.0998 59.0976 32.9407C59.5006 32.7818 59.8481 32.5642 60.1403 32.2865C60.4324 32.0088 60.6572 31.6823 60.8176 31.3019C60.9755 30.9235 61.0551 30.5145 61.0551 30.0798ZM67.1434 19.0259V13.1158H61.1477V15.2675H64.7494V17.9006C64.3199 18.222 63.8133 18.4802 63.2303 18.6744C62.647 18.8686 62.0198 18.9656 61.3491 18.9656C60.6246 18.9656 59.9705 18.8385 59.3871 18.584C58.8037 18.3284 58.3005 17.9778 57.8784 17.5284C57.4553 17.0798 57.1306 16.5464 56.9021 15.93C56.6744 15.3135 56.5602 14.6435 56.5602 13.9197C56.5602 13.2364 56.6778 12.5927 56.9125 11.9905C57.147 11.3873 57.4696 10.8577 57.8784 10.4015C58.287 9.94618 58.7703 9.5872 59.3272 9.32611C59.8838 9.06502 60.4836 8.93407 61.1274 8.93407C61.5703 8.93407 61.9764 8.9707 62.3446 9.04428C62.7136 9.11883 63.0526 9.21874 63.361 9.34588C63.6696 9.474 63.9646 9.63153 64.2462 9.81904C64.5277 10.0065 64.8028 10.214 65.0711 10.442L66.6407 8.57218C66.2785 8.26401 65.9059 7.99263 65.5239 7.75786C65.1413 7.52406 64.7359 7.32622 64.3066 7.16505C63.8775 7.00388 63.4114 6.88035 62.9082 6.79373C62.4055 6.70615 61.8453 6.66272 61.2288 6.66272C60.1687 6.66272 59.1929 6.85695 58.3005 7.24515C57.4087 7.63432 56.6409 8.16029 55.9971 8.82379C55.3533 9.48729 54.8535 10.2611 54.4978 11.146C54.1425 12.03 53.9648 12.9679 53.9648 13.9602C53.9648 14.9921 54.1395 15.9507 54.4879 16.8347C54.8368 17.7187 55.3294 18.487 55.9669 19.1362C56.6042 19.7874 57.3716 20.2955 58.2708 20.6649C59.1693 21.0334 60.1687 21.2171 61.2684 21.2171C61.8858 21.2171 62.4757 21.1607 63.0393 21.0466C63.6024 20.9325 64.1289 20.7752 64.6188 20.5745C65.108 20.3727 65.5639 20.1379 65.9865 19.8704C66.4091 19.6018 66.795 19.321 67.1434 19.0259Z" fill="white"/>
</g>
</svg>
