<svg width="64" height="64" viewBox="0 0 64 64" fill="none" xmlns="http://www.w3.org/2000/svg">
<g opacity="0.1">
<rect width="64" height="64" rx="20" fill="#E8F2FF"/>
<rect width="64" height="64" rx="20" fill="#F8F9FD"/>
</g>
<path d="M40.953 48H40.1939V40.103C40.1939 36.3548 37.6489 33.1336 34.0032 32.2693C33.8451 32.2314 33.7281 32.0975 33.7133 31.9362C33.6975 31.7739 33.7882 31.62 33.9368 31.5536C35.5361 30.8421 36.5683 29.2547 36.5683 27.5102C36.5683 25.0691 34.582 23.0822 32.1404 23.0822C29.6987 23.0822 27.7124 25.068 27.7124 27.5102C27.7124 29.2558 28.7456 30.8432 30.3439 31.5536C30.4925 31.62 30.5821 31.7739 30.5674 31.9362C30.5526 32.0975 30.4356 32.2324 30.2774 32.2693C26.6318 33.1326 24.0868 36.3538 24.0868 40.103V48H23.3277V40.103C23.3277 36.3116 25.7061 33.0145 29.2158 31.7897C27.8168 30.8337 26.9523 29.2379 26.9523 27.5102C26.9523 25.4401 28.1721 23.6482 29.9306 22.8176C30.1373 22.299 30.2416 21.7509 30.2416 21.1859C30.2416 18.7448 28.2554 16.7579 25.8137 16.7579C23.372 16.7579 21.3847 18.7437 21.3847 21.1859C21.3847 22.9304 22.4179 24.5189 24.0161 25.2293C24.1659 25.2957 24.2555 25.4496 24.2397 25.6119C24.2249 25.7732 24.1079 25.9081 23.9497 25.945C20.3041 26.8093 17.7591 30.0263 17.7591 33.7703V41.6757H17V33.7703C17 29.9841 19.3795 26.6891 22.8881 25.4654C21.4901 24.5094 20.6267 22.9136 20.6267 21.1859C20.6267 18.3263 22.9534 16 25.8137 16C28.6739 16 31.0007 18.3263 31.0007 21.1859C31.0007 21.6308 30.9459 22.0671 30.8352 22.4898C31.6691 22.2737 32.6095 22.2737 33.4424 22.4898C33.3327 22.0671 33.2768 21.6308 33.2768 21.1859C33.2768 18.3263 35.6047 16 38.4649 16C41.3252 16 43.653 18.3263 43.653 21.1859C43.653 22.9146 42.7885 24.5104 41.3905 25.4664C44.9002 26.6902 47.2797 29.9852 47.2797 33.7713V41.6757H46.5195V33.7703C46.5195 30.0263 43.9745 26.8093 40.3289 25.945C40.1707 25.9071 40.0537 25.7732 40.0389 25.6119C40.0231 25.4496 40.1138 25.2957 40.2624 25.2293C41.8607 24.5178 42.8928 22.9304 42.8928 21.1859C42.8928 18.7448 40.9066 16.7579 38.4649 16.7579C36.0232 16.7579 34.037 18.7437 34.037 21.1859C34.037 21.7509 34.1413 22.299 34.348 22.8176C36.1076 23.6493 37.3274 25.4401 37.3274 27.5102C37.3274 29.2389 36.4629 30.8347 35.0649 31.7908C38.5746 33.0156 40.9541 36.3127 40.9541 40.1041L40.953 48ZM35.5709 40.8904L35.0333 40.3529L31.085 44.3013L29.2443 42.461L28.7077 42.9985L31.085 45.3744L35.5709 40.8904Z" fill="#09AA74"/>
</svg>
