<svg width="27" height="27" viewBox="0 0 27 27" fill="none" xmlns="http://www.w3.org/2000/svg">
<path fill-rule="evenodd" clip-rule="evenodd" d="M13.2557 0C20.5773 0 26.5113 5.93398 26.5113 13.2557C26.5113 20.5773 20.5773 26.5113 13.2557 26.5113C5.93398 26.5113 0 20.5773 0 13.2557C0 5.93398 5.93398 0 13.2557 0Z" fill="url(#paint0_radial_1_313)"/>
<path d="M8.42465 10.2369C11.0913 7.63238 15.4201 7.63238 18.0868 10.2369L18.4078 10.5528C18.5425 10.6822 18.5425 10.8945 18.4078 11.024L17.3101 12.0958C17.2428 12.1631 17.134 12.1631 17.0667 12.0958L16.6266 11.666C14.7625 9.84856 11.7489 9.84856 9.88484 11.666L9.41365 12.1269C9.34633 12.1942 9.2376 12.1942 9.17028 12.1269L8.07255 11.055C7.93792 10.9256 7.93792 10.7133 8.07255 10.5838L8.42465 10.2369ZM20.3599 12.4531L21.3386 13.4058C21.4732 13.5353 21.4732 13.7476 21.3386 13.877L16.9321 18.1799C16.7975 18.3094 16.58 18.3094 16.4505 18.1799L13.323 15.1249C13.292 15.0939 13.235 15.0939 13.2039 15.1249L10.0764 18.1799C9.9418 18.3094 9.72433 18.3094 9.59488 18.1799L5.17287 13.877C5.03824 13.7476 5.03824 13.5353 5.17287 13.4058L6.15151 12.4531C6.28614 12.3236 6.50362 12.3236 6.63307 12.4531L9.76057 15.5081C9.79164 15.5392 9.8486 15.5392 9.87967 15.5081L13.0072 12.4531C13.1418 12.3236 13.3593 12.3236 13.4887 12.4531L16.6162 15.5081C16.6473 15.5392 16.7043 15.5392 16.7353 15.5081L19.8628 12.4531C20.0078 12.3236 20.2253 12.3236 20.3599 12.4531Z" fill="white"/>
<defs>
<radialGradient id="paint0_radial_1_313" cx="0" cy="0" r="1" gradientUnits="userSpaceOnUse" gradientTransform="translate(8.21703e-05 13.2561) scale(26.5113)">
<stop stop-color="#5D9DF6"/>
<stop offset="1" stop-color="#006FFF"/>
</radialGradient>
</defs>
</svg>
