<svg width="55" height="55" viewBox="0 0 55 55" fill="none" xmlns="http://www.w3.org/2000/svg">
<path d="M27.5 55C42.6878 55 55 42.6878 55 27.5C55 12.3122 42.6878 0 27.5 0C12.3122 0 0 12.3122 0 27.5C0 42.6878 12.3122 55 27.5 55Z" fill="#0093DD"/>
<path fill-rule="evenodd" clip-rule="evenodd" d="M23.2031 27.5L32.1406 36.6094L37.8125 30.9375C38.8438 29.9062 40.3906 29.9062 41.25 30.9375C42.2812 31.9688 42.2812 33.6875 41.25 34.7188L33.8594 42.2812C32.8281 43.3125 31.2813 43.3125 30.25 42.2812L19.5938 31.2813V37.8125C19.5938 39.1875 18.3906 40.3906 17.0156 40.3906C15.6406 40.3906 14.4375 39.1875 14.4375 37.8125V17.1875C14.4375 15.8125 15.6406 14.6094 17.0156 14.6094C18.3906 14.6094 19.5938 15.8125 19.5938 17.1875V23.7188L30.25 12.7188C31.2813 11.6875 32.8281 11.6875 33.8594 12.7188L41.25 20.2812C42.2812 21.3125 42.2812 23.0312 41.25 24.0625C40.2188 25.0938 38.6719 25.0938 37.8125 24.0625L32.1406 18.2188L23.2031 27.5ZM32.1406 24.9219C33.5156 24.9219 34.7188 26.125 34.7188 27.5C34.7188 28.875 33.5156 30.0781 32.1406 30.0781C30.7656 30.0781 29.5625 28.875 29.5625 27.5C29.5625 26.125 30.7656 24.9219 32.1406 24.9219Z" fill="white"/>
</svg>
