<svg width="80" height="64" viewBox="0 0 80 64" fill="none" xmlns="http://www.w3.org/2000/svg">
<rect x="16" y="8" width="48" height="48" rx="16" fill="#F5F5F5" fill-opacity="0.1"/>
<path d="M30.6667 44C29.9333 44 29.3053 43.7391 28.7827 43.2173C28.2609 42.6947 28 42.0667 28 41.3333V22.6667C28 21.9333 28.2609 21.3053 28.7827 20.7827C29.3053 20.2609 29.9333 20 30.6667 20H36C36.7333 20 37.3613 20.2609 37.884 20.7827C38.4058 21.3053 38.6667 21.9333 38.6667 22.6667V41.3333C38.6667 42.0667 38.4058 42.6947 37.884 43.2173C37.3613 43.7391 36.7333 44 36 44H30.6667ZM44 29.3333C43.2667 29.3333 42.6391 29.072 42.1173 28.5493C41.5947 28.0276 41.3333 27.4 41.3333 26.6667V22.6667C41.3333 21.9333 41.5947 21.3053 42.1173 20.7827C42.6391 20.2609 43.2667 20 44 20H49.3333C50.0667 20 50.6947 20.2609 51.2173 20.7827C51.7391 21.3053 52 21.9333 52 22.6667V26.6667C52 27.4 51.7391 28.0276 51.2173 28.5493C50.6947 29.072 50.0667 29.3333 49.3333 29.3333H44ZM44 44C43.2667 44 42.6391 43.7391 42.1173 43.2173C41.5947 42.6947 41.3333 42.0667 41.3333 41.3333V34.6667C41.3333 33.9333 41.5947 33.3053 42.1173 32.7827C42.6391 32.2609 43.2667 32 44 32H49.3333C50.0667 32 50.6947 32.2609 51.2173 32.7827C51.7391 33.3053 52 33.9333 52 34.6667V41.3333C52 42.0667 51.7391 42.6947 51.2173 43.2173C50.6947 43.7391 50.0667 44 49.3333 44H44Z" fill="#7853F8"/>
</svg>
