<svg width="20" height="20" viewBox="0 0 20 20" fill="none" xmlns="http://www.w3.org/2000/svg">
<path d="M3.33317 16.6668C2.87484 16.6668 2.48262 16.5038 2.1565 16.1777C1.82984 15.851 1.6665 15.4585 1.6665 15.0002V5.00016C1.6665 4.54183 1.82984 4.14961 2.1565 3.8235C2.48262 3.49683 2.87484 3.3335 3.33317 3.3335H16.6665C17.1248 3.3335 17.5173 3.49683 17.844 3.8235C18.1701 4.14961 18.3332 4.54183 18.3332 5.00016V15.0002C18.3332 15.4585 18.1701 15.851 17.844 16.1777C17.5173 16.5038 17.1248 16.6668 16.6665 16.6668H3.33317ZM9.99984 10.6877C10.0693 10.6877 10.1421 10.6771 10.2182 10.656C10.2948 10.6354 10.3679 10.6043 10.4373 10.5627L16.3332 6.87516C16.4443 6.80572 16.5276 6.71905 16.5832 6.61516C16.6387 6.51072 16.6665 6.396 16.6665 6.271C16.6665 5.99322 16.5484 5.78488 16.3123 5.646C16.0762 5.50711 15.8332 5.51405 15.5832 5.66683L9.99984 9.16683L4.4165 5.66683C4.1665 5.51405 3.92345 5.51044 3.68734 5.656C3.45123 5.80211 3.33317 6.00711 3.33317 6.271C3.33317 6.40988 3.36095 6.53127 3.4165 6.63516C3.47206 6.73961 3.55539 6.81961 3.6665 6.87516L9.56234 10.5627C9.63178 10.6043 9.70484 10.6354 9.7815 10.656C9.85761 10.6771 9.93039 10.6877 9.99984 10.6877Z" fill="white"/>
</svg>
