<svg width="147" height="18" viewBox="0 0 147 18" fill="none" xmlns="http://www.w3.org/2000/svg">
<path fill-rule="evenodd" clip-rule="evenodd" d="M12.7725 5.31851L16.7762 1.14697V13.2418L12.7725 16.8863V5.31851Z" fill="white"/>
<path fill-rule="evenodd" clip-rule="evenodd" d="M6.89258 7.43552L8.82263 9.01658L10.8963 7.19434V13.2417L6.89258 16.8863V7.43552Z" fill="white"/>
<path fill-rule="evenodd" clip-rule="evenodd" d="M5.00762 5.31851L1.00391 1.14697V16.9309L5.00762 13.5366V5.31851Z" fill="white"/>
<path d="M24.6851 14.8228H27.1896V7.31942L30.4303 12.2145H30.4931L33.7697 7.27475V14.8317H36.3102V3.25507H33.5543L30.5021 8.15016L27.45 3.25507H24.6941V14.8228H24.6851ZM46.9299 14.8228H55.7811V12.5539H49.4703V10.1243H54.9552V7.86431H49.4703V5.51502H55.7003V3.25507H46.9299V14.8228ZM70.0275 14.9926C72.5321 14.9926 74.3005 13.7063 74.3005 11.4017V11.3659C74.3005 9.34714 72.9719 8.50746 70.611 7.8911C68.6002 7.38194 68.1065 7.13184 68.1065 6.37256V6.33683C68.1065 5.77408 68.6181 5.32744 69.6056 5.32744C70.5841 5.32744 71.5985 5.75621 72.6308 6.47082L73.9594 4.5503C72.7834 3.61238 71.3381 3.07642 69.6415 3.07642C67.2626 3.07642 65.5749 4.46098 65.5749 6.56014V6.59588C65.5749 8.89158 67.0831 9.53471 69.426 10.1332C71.3651 10.6334 71.769 10.964 71.769 11.6071V11.6428C71.769 12.3217 71.1407 12.7326 70.0904 12.7326C68.7618 12.7326 67.6666 12.1877 66.6163 11.3302L65.0992 13.1346C66.4906 14.3762 68.268 14.9926 70.0275 14.9926ZM88.3225 14.9926C90.8271 14.9926 92.5951 13.7063 92.5951 11.4017V11.3659C92.5951 9.34714 91.2671 8.50746 88.906 7.8911C86.8948 7.38194 86.4014 7.13184 86.4014 6.37256V6.33683C86.4014 5.77408 86.9132 5.32744 87.9008 5.32744C88.8789 5.32744 89.8937 5.75621 90.9259 6.47082L92.2548 4.5503C91.0782 3.61238 89.633 3.07642 87.9367 3.07642C85.5573 3.07642 83.8697 4.46098 83.8697 6.56014V6.59588C83.8697 8.89158 85.3779 9.53471 87.7207 10.1332C89.6601 10.6334 90.0642 10.964 90.0642 11.6071V11.6428C90.0642 12.3217 89.4353 12.7326 88.3855 12.7326C87.0567 12.7326 85.9614 12.1877 84.9116 11.3302L83.4034 13.1346C84.7856 14.3762 86.5632 14.9926 88.3225 14.9926ZM101.411 14.8228H104.014L105.073 12.2234H109.993L111.052 14.8228H113.727L108.745 3.17468H106.393L101.411 14.8228ZM105.989 9.98134L107.533 6.22964L109.077 9.98134H105.989ZM123.36 14.8228H125.918V11.1247H127.929L130.425 14.8228H133.414L130.577 10.687C132.058 10.1421 133.073 8.97193 133.073 7.0961V7.0693C133.073 5.97953 132.723 5.0684 132.076 4.42525C131.313 3.66597 130.164 3.25507 128.692 3.25507H123.36V14.8228ZM125.918 8.87373V5.55076H128.458C129.706 5.55076 130.469 6.11352 130.469 7.20329V7.23903C130.469 8.21268 129.751 8.87373 128.512 8.87373H125.918ZM143.315 14.8228H145.874V3.25507H143.315V14.8228Z" fill="white"/>
</svg>
