<svg width="32" height="28" viewBox="0 0 32 28" fill="none" xmlns="http://www.w3.org/2000/svg">
<path d="M18.9906 21.2846L18.9379 21.2055C18.5162 20.5465 18.5755 19.7558 19.0829 19.143C19.1554 19.0573 19.2344 18.9651 19.3333 18.8597C19.6364 18.5566 20.1174 18.148 20.8093 18.148C21.231 18.148 21.6462 18.2996 22.0679 18.6159C22.7268 19.1035 23.3858 19.6174 24.0117 20.1051C24.1369 20.1973 24.2556 20.2962 24.3808 20.3884C24.473 20.283 24.5653 20.171 24.6641 20.0655C25.3164 19.3143 25.9622 18.5631 26.608 17.812C26.9638 16.5995 27.1549 15.3212 27.1549 13.9967C27.1549 6.49796 21.0729 0.415955 13.5741 0.415955C6.08201 0.422544 0 6.50455 0 14.0033C0 21.502 6.08201 27.584 13.5807 27.584C16.625 27.584 19.4387 26.5824 21.6989 24.889C20.974 23.9467 20.236 22.9978 19.5178 22.0555C19.3201 21.7985 19.1488 21.535 18.9906 21.2846ZM17.4817 19.3605C16.8886 20.0787 16.1177 20.5663 15.2149 20.8101C14.8195 20.9156 14.6482 21.1264 14.668 21.535C14.6878 21.9369 14.668 22.3389 14.668 22.7408C14.668 23.0966 14.4835 23.2877 14.1342 23.3009C13.7059 23.3141 13.271 23.3141 12.8361 23.3009C12.4605 23.2943 12.2826 23.0769 12.276 22.7079C12.2694 22.4179 12.2694 22.1214 12.2694 21.8315C12.2629 21.1857 12.2431 21.1594 11.6171 21.0605C10.8198 20.9353 10.0422 20.7508 9.31081 20.4016C8.73753 20.1248 8.67823 19.9799 8.84296 19.3802C8.96816 18.9321 9.08677 18.4841 9.22515 18.0426C9.38329 17.5286 9.52167 17.4627 9.99611 17.7131C10.8 18.1348 11.6566 18.3655 12.5528 18.4775C13.1327 18.55 13.6928 18.4907 14.2331 18.26C15.2281 17.8251 15.3862 16.6654 14.5428 15.9735C14.2529 15.7363 13.93 15.565 13.5873 15.4134C12.7109 15.0312 11.8016 14.7347 10.9713 14.2405C9.6271 13.4366 8.77707 12.3362 8.87591 10.702C8.98793 8.85697 10.0291 7.70382 11.7225 7.09101C12.421 6.83402 12.421 6.8472 12.4276 6.11578C12.4276 5.87197 12.4276 5.62157 12.4276 5.37777C12.4408 4.82426 12.533 4.73201 13.0799 4.71883C13.2513 4.71224 13.4226 4.71883 13.5873 4.71883C14.7536 4.71883 14.7536 4.71883 14.7602 5.88515C14.7668 6.70882 14.7602 6.71541 15.5839 6.84061C16.2165 6.93945 16.8161 7.12396 17.396 7.38094C17.7189 7.51932 17.8375 7.74995 17.7386 8.08601C17.5937 8.5868 17.4553 9.09418 17.2972 9.59498C17.1456 10.0694 16.994 10.1353 16.5394 9.91786C15.63 9.47637 14.6746 9.29187 13.6664 9.35117C13.4028 9.36435 13.1458 9.40389 12.902 9.50932C12.0322 9.8915 11.8939 10.847 12.6319 11.44C13.0075 11.7365 13.4358 11.954 13.8773 12.1385C14.6482 12.4548 15.4192 12.7645 16.1506 13.1664C18.4898 14.4448 19.1224 17.3639 17.4817 19.3605Z" fill="white"/>
<path d="M31.6357 15.4332C31.3194 15.1762 31.1019 15.0444 30.9043 15.0444C30.6802 15.0444 30.4825 15.2158 30.1794 15.565C28.6507 17.3375 27.1219 19.1035 25.5932 20.876C25.2505 21.2714 24.9079 21.6668 24.5521 22.0753C24.3742 21.9369 24.2094 21.8117 24.0447 21.68C23.1419 20.9815 22.2524 20.2764 21.343 19.5977C21.1388 19.4461 20.9674 19.3671 20.8093 19.3671C20.6116 19.3671 20.4271 19.4857 20.2031 19.7163C20.1372 19.7822 20.0845 19.8481 20.0252 19.9206C19.8604 20.1183 19.8341 20.3291 19.9724 20.5466C20.1372 20.8036 20.3019 21.0671 20.4864 21.3109C21.6923 22.8792 22.8981 24.4409 24.1106 26.0092C24.2556 26.2003 24.4269 26.2991 24.5982 26.2991C24.7827 26.2991 24.9672 26.1871 25.1254 25.9565C27.346 22.7804 29.56 19.6109 31.7741 16.4348C32.1101 15.9538 32.0772 15.7956 31.6357 15.4332Z" fill="white"/>
</svg>
