<svg width="32" height="32" viewBox="0 0 32 32" fill="none" xmlns="http://www.w3.org/2000/svg">
<path d="M29.3335 11.3334C29.3335 15.68 26.1335 19.2667 21.9735 19.8934V19.8134C21.5601 14.64 17.3601 10.44 12.1468 10.0267H12.1068C12.7334 5.86669 16.3201 2.66669 20.6668 2.66669C25.4535 2.66669 29.3335 6.54669 29.3335 11.3334Z" fill="white"/>
<path d="M19.9733 19.9733C19.64 15.7467 16.2533 12.36 12.0267 12.0267C11.8 12.0133 11.56 12 11.3333 12C6.54666 12 2.66666 15.88 2.66666 20.6667C2.66666 25.4533 6.54666 29.3333 11.3333 29.3333C16.12 29.3333 20 25.4533 20 20.6667C20 20.44 19.9867 20.2 19.9733 19.9733ZM12.5067 21.84L11.3333 24L10.16 21.84L7.99999 20.6667L10.16 19.4933L11.3333 17.3333L12.5067 19.4933L14.6667 20.6667L12.5067 21.84Z" fill="white"/>
</svg>
