<svg width="32" height="32" viewBox="0 0 32 32" fill="none" xmlns="http://www.w3.org/2000/svg">
<path d="M16 1.33331C15.6464 1.33331 15.3072 1.47379 15.0572 1.72383C14.8072 1.97389 14.6666 2.31302 14.6666 2.66665V16C14.6666 16.7364 15.2636 17.3333 16 17.3333H29.3333C30.0697 17.3333 30.6666 16.7364 30.6666 16C30.6666 14.074 30.2873 12.1667 29.5502 10.3873C28.8132 8.60785 27.7328 6.99101 26.3709 5.62909C25.0089 4.26715 23.3921 3.18682 21.6126 2.44975C19.8332 1.71267 17.926 1.33331 16 1.33331Z" fill="white"/>
<path d="M12 6.01614C12 5.58332 11.7899 5.17742 11.4366 4.92752C11.0832 4.67761 10.6305 4.61478 10.2224 4.75902C5.04555 6.58877 1.33337 11.5258 1.33337 17.3334C1.33337 24.6971 7.30291 30.6667 14.6667 30.6667C20.4742 30.6667 25.4112 26.9544 27.241 21.7776C27.3852 21.3696 27.3224 20.9168 27.0726 20.5635C26.8226 20.21 26.4167 20 25.9839 20H14.6667C13.1939 20 12 18.806 12 17.3334V6.01614Z" fill="white"/>
</svg>
