<svg width="32" height="32" viewBox="0 0 32 32" fill="none" xmlns="http://www.w3.org/2000/svg">
<path d="M16 25.3333C15.6222 25.3333 15.3057 25.2053 15.0506 24.9493C14.7946 24.6942 14.6666 24.3778 14.6666 24V17.3333H7.99996C7.62218 17.3333 7.30529 17.2053 7.04929 16.9493C6.79418 16.6942 6.66663 16.3778 6.66663 16C6.66663 15.6222 6.79418 15.3053 7.04929 15.0493C7.30529 14.7942 7.62218 14.6667 7.99996 14.6667H14.6666V8.00001C14.6666 7.62223 14.7946 7.30534 15.0506 7.04934C15.3057 6.79423 15.6222 6.66667 16 6.66667C16.3777 6.66667 16.6946 6.79423 16.9506 7.04934C17.2057 7.30534 17.3333 7.62223 17.3333 8.00001V14.6667H24C24.3777 14.6667 24.6942 14.7942 24.9493 15.0493C25.2053 15.3053 25.3333 15.6222 25.3333 16C25.3333 16.3778 25.2053 16.6942 24.9493 16.9493C24.6942 17.2053 24.3777 17.3333 24 17.3333H17.3333V24C17.3333 24.3778 17.2057 24.6942 16.9506 24.9493C16.6946 25.2053 16.3777 25.3333 16 25.3333Z" fill="white"/>
</svg>
