<svg width="32" height="32" viewBox="0 0 32 32" fill="none" xmlns="http://www.w3.org/2000/svg">
<path d="M28.9522 28.9523H17.6608C17.6608 21.2495 10.7504 14.3389 3.04749 14.3389V3.04752C17.3561 3.04752 28.9522 14.6437 28.9522 28.9523Z" fill="url(#paint0_linear_1_329)"/>
<path opacity="0.5" d="M28.9522 28.9523H17.6608C17.6608 21.2495 10.7504 14.3389 3.04749 14.3389V3.04752C17.3561 3.04752 28.9522 14.6437 28.9522 28.9523Z" fill="url(#paint1_radial_1_329)"/>
<path d="M28.9522 28.9523H17.6608C17.6608 21.2495 10.7504 14.3389 3.04749 14.3389V3.04752C17.3561 3.04752 28.9522 14.6437 28.9522 28.9523Z" fill="url(#paint2_linear_1_329)"/>
<path d="M3.04749 14.3388V5.04361C16.2513 5.04361 26.9561 15.7484 26.9561 28.9521H17.6608C17.6608 21.2493 10.7504 14.3388 3.04749 14.3388Z" fill="url(#paint3_linear_1_329)"/>
<path opacity="0.5" d="M3.04749 14.3388V5.04361C16.2513 5.04361 26.9561 15.7484 26.9561 28.9521H17.6608C17.6608 21.2493 10.7504 14.3388 3.04749 14.3388Z" fill="url(#paint4_radial_1_329)"/>
<path d="M3.04749 14.3388V5.04361C16.2513 5.04361 26.9561 15.7484 26.9561 28.9521H17.6608C17.6608 21.2493 10.7504 14.3388 3.04749 14.3388Z" fill="url(#paint5_linear_1_329)"/>
<path d="M3.04749 14.3392V7.03255C15.1541 7.03255 24.9674 16.8459 24.9674 28.9525H17.6608C17.6608 21.2497 10.7504 14.3392 3.04749 14.3392Z" fill="url(#paint6_linear_1_329)"/>
<path opacity="0.5" d="M3.04749 14.3392V7.03255C15.1541 7.03255 24.9674 16.8459 24.9674 28.9525H17.6608C17.6608 21.2497 10.7504 14.3392 3.04749 14.3392Z" fill="url(#paint7_radial_1_329)"/>
<path d="M3.04749 14.3392V7.03255C15.1541 7.03255 24.9674 16.8459 24.9674 28.9525H17.6608C17.6608 21.2497 10.7504 14.3392 3.04749 14.3392Z" fill="url(#paint8_linear_1_329)"/>
<path d="M3.04749 14.3391V9.02864C14.0494 9.02864 22.9713 17.9505 22.9713 28.9524H17.6608C17.6608 21.2496 10.7504 14.3391 3.04749 14.3391Z" fill="url(#paint9_linear_1_329)"/>
<path opacity="0.5" d="M3.04749 14.3391V9.02864C14.0494 9.02864 22.9713 17.9505 22.9713 28.9524H17.6608C17.6608 21.2496 10.7504 14.3391 3.04749 14.3391Z" fill="url(#paint10_radial_1_329)"/>
<path d="M3.04749 14.3391V9.02864C14.0494 9.02864 22.9713 17.9505 22.9713 28.9524H17.6608C17.6608 21.2496 10.7504 14.3391 3.04749 14.3391Z" fill="url(#paint11_linear_1_329)"/>
<path d="M3.04749 14.3388V11.0169C12.9523 11.0169 20.9828 19.0475 20.9828 28.9521H17.6608C17.6608 21.2493 10.7504 14.3388 3.04749 14.3388Z" fill="url(#paint12_linear_1_329)"/>
<path opacity="0.5" d="M3.04749 14.3388V11.0169C12.9523 11.0169 20.9828 19.0475 20.9828 28.9521H17.6608C17.6608 21.2493 10.7504 14.3388 3.04749 14.3388Z" fill="url(#paint13_radial_1_329)"/>
<path d="M3.04749 14.3388V11.0169C12.9523 11.0169 20.9828 19.0475 20.9828 28.9521H17.0665C17.0589 21.2493 10.7504 14.3388 3.04749 14.3388Z" fill="url(#paint14_linear_1_329)"/>
<path d="M3.04749 15.002V13.0059C11.8551 13.0059 18.9865 20.1449 18.9865 28.9449H16.9904C16.998 21.2497 10.7504 15.002 3.04749 15.002Z" fill="url(#paint15_linear_1_329)"/>
<path opacity="0.5" d="M3.04749 14.9413V13.0137C11.8551 13.0137 18.9865 20.1527 18.9865 28.9527H16.9904C16.998 21.2499 10.7504 14.9413 3.04749 14.9413Z" fill="url(#paint16_radial_1_329)"/>
<path d="M3.04749 14.9408V13.0131C11.8323 12.9826 18.9561 20.1064 18.9865 28.9521H16.9904C16.998 21.2493 10.7504 14.9408 3.04749 14.9408Z" fill="url(#paint17_linear_1_329)"/>
<defs>
<linearGradient id="paint0_linear_1_329" x1="19.295" y1="34.3613" x2="15.044" y2="16.0288" gradientUnits="userSpaceOnUse">
<stop stop-color="#C20000"/>
<stop offset="0.076599" stop-color="#C80400"/>
<stop offset="0.6838" stop-color="#F02300"/>
<stop offset="0.9987" stop-color="#FF2F00"/>
</linearGradient>
<radialGradient id="paint1_radial_1_329" cx="0" cy="0" r="1" gradientUnits="userSpaceOnUse" gradientTransform="translate(3.08671 28.876) rotate(180) scale(25.8692)">
<stop offset="0.9066" stop-color="white" stop-opacity="0"/>
<stop offset="0.9551" stop-color="white" stop-opacity="0.5"/>
<stop offset="1" stop-color="white" stop-opacity="0"/>
</radialGradient>
<linearGradient id="paint2_linear_1_329" x1="29.218" y1="31.1505" x2="2.64902" y2="1.9689" gradientUnits="userSpaceOnUse">
<stop stop-color="#C20000"/>
<stop offset="0.0284242" stop-color="#C50200" stop-opacity="0.8463"/>
<stop offset="0.185" stop-color="#CF0A00" stop-opacity="0"/>
<stop offset="0.3922" stop-color="#DD1500" stop-opacity="0"/>
<stop offset="0.8181" stop-color="#F72900" stop-opacity="0"/>
<stop offset="0.9609" stop-color="#FC2D00" stop-opacity="0.7909"/>
<stop offset="0.9987" stop-color="#FF2F00"/>
</linearGradient>
<linearGradient id="paint3_linear_1_329" x1="19.7413" y1="38.0209" x2="12.8997" y2="12.1161" gradientUnits="userSpaceOnUse">
<stop stop-color="#F05C00"/>
<stop offset="0.5926" stop-color="#FA7A00"/>
<stop offset="0.9987" stop-color="#FF8900"/>
</linearGradient>
<radialGradient id="paint4_radial_1_329" cx="0" cy="0" r="1" gradientUnits="userSpaceOnUse" gradientTransform="translate(3.09778 28.9092) rotate(180) scale(23.9136)">
<stop offset="0.9066" stop-color="white" stop-opacity="0"/>
<stop offset="0.9551" stop-color="white" stop-opacity="0.5"/>
<stop offset="1" stop-color="white" stop-opacity="0"/>
</radialGradient>
<linearGradient id="paint5_linear_1_329" x1="26.8538" y1="28.7441" x2="3.1631" y2="4.74345" gradientUnits="userSpaceOnUse">
<stop stop-color="#F05C00"/>
<stop offset="0.0249671" stop-color="#F15E00" stop-opacity="0.8543"/>
<stop offset="0.1714" stop-color="#F46900" stop-opacity="0"/>
<stop offset="0.188" stop-color="#F46A00" stop-opacity="0"/>
<stop offset="0.8679" stop-color="#FD8300" stop-opacity="0"/>
<stop offset="0.9874" stop-color="#FF8800" stop-opacity="0.9139"/>
<stop offset="0.9987" stop-color="#FF8900"/>
</linearGradient>
<linearGradient id="paint6_linear_1_329" x1="17.8498" y1="34.668" x2="13.0675" y2="16.6675" gradientUnits="userSpaceOnUse">
<stop stop-color="#FFBF00"/>
<stop offset="0.1864" stop-color="#FFBE10"/>
<stop offset="0.7204" stop-color="#FFBD38"/>
<stop offset="0.9973" stop-color="#FFBC47"/>
</linearGradient>
<radialGradient id="paint7_radial_1_329" cx="0" cy="0" r="1" gradientUnits="userSpaceOnUse" gradientTransform="translate(3.11993 28.8431) rotate(180) scale(21.7867 21.7867)">
<stop offset="0.9066" stop-color="white" stop-opacity="0"/>
<stop offset="0.9551" stop-color="white" stop-opacity="0.5"/>
<stop offset="1" stop-color="white" stop-opacity="0"/>
</radialGradient>
<linearGradient id="paint8_linear_1_329" x1="18.7998" y1="30.1083" x2="6.14697" y2="1.6144" gradientUnits="userSpaceOnUse">
<stop stop-color="#FFBF00"/>
<stop offset="0.2503" stop-color="#FFBE15" stop-opacity="0"/>
<stop offset="0.3858" stop-color="#FFBD20" stop-opacity="0"/>
<stop offset="0.7818" stop-color="#FFBC3C" stop-opacity="0"/>
<stop offset="0.9973" stop-color="#FFBC47"/>
</linearGradient>
<linearGradient id="paint9_linear_1_329" x1="25.1329" y1="35.9073" x2="11.3841" y2="16.1809" gradientUnits="userSpaceOnUse">
<stop offset="0.00132565" stop-color="#4B8C1C"/>
<stop offset="0.2325" stop-color="#5EA12C"/>
<stop offset="0.7361" stop-color="#82C94A"/>
<stop offset="0.9973" stop-color="#90D856"/>
</linearGradient>
<radialGradient id="paint10_radial_1_329" cx="0" cy="0" r="1" gradientUnits="userSpaceOnUse" gradientTransform="translate(3.11453 28.8521) rotate(180) scale(19.8271 19.8271)">
<stop offset="0.9066" stop-color="white" stop-opacity="0"/>
<stop offset="0.9551" stop-color="white" stop-opacity="0.5"/>
<stop offset="1" stop-color="white" stop-opacity="0"/>
</radialGradient>
<linearGradient id="paint11_linear_1_329" x1="23.1826" y1="28.5001" x2="5.42565" y2="9.63616" gradientUnits="userSpaceOnUse">
<stop offset="0.00132565" stop-color="#4B8C1C"/>
<stop offset="0.2281" stop-color="#61A42E" stop-opacity="0"/>
<stop offset="0.377" stop-color="#6BAE36" stop-opacity="0"/>
<stop offset="0.8356" stop-color="#85CB4C" stop-opacity="0"/>
<stop offset="0.9973" stop-color="#90D856"/>
</linearGradient>
<linearGradient id="paint12_linear_1_329" x1="16.3645" y1="32.1823" x2="9.32366" y2="12.5876" gradientUnits="userSpaceOnUse">
<stop offset="0.00662825" stop-color="#3640FF"/>
<stop offset="0.1428" stop-color="#2657F8"/>
<stop offset="0.4841" stop-color="#008EE6"/>
<stop offset="0.7886" stop-color="#0FACF6"/>
<stop offset="0.9973" stop-color="#17BBFE"/>
</linearGradient>
<radialGradient id="paint13_radial_1_329" cx="0" cy="0" r="1" gradientUnits="userSpaceOnUse" gradientTransform="translate(3.11991 28.8427) rotate(180) scale(17.8677)">
<stop offset="0.9066" stop-color="white" stop-opacity="0"/>
<stop offset="0.9551" stop-color="white" stop-opacity="0.5"/>
<stop offset="1" stop-color="white" stop-opacity="0"/>
</radialGradient>
<linearGradient id="paint14_linear_1_329" x1="23.3652" y1="30.1439" x2="3.03986" y2="8.55664" gradientUnits="userSpaceOnUse">
<stop offset="0.00662825" stop-color="#3640FF"/>
<stop offset="0.2031" stop-color="#1B67F2" stop-opacity="0"/>
<stop offset="0.4841" stop-color="#008EE6" stop-opacity="0"/>
<stop offset="0.5854" stop-color="#0598EB" stop-opacity="0"/>
<stop offset="0.8707" stop-color="#12B0F8" stop-opacity="0"/>
<stop offset="0.9973" stop-color="#17BBFE"/>
</linearGradient>
<linearGradient id="paint15_linear_1_329" x1="19.11" y1="33.6096" x2="9.64527" y2="17.4697" gradientUnits="userSpaceOnUse">
<stop offset="0.00268665" stop-color="#7000A3"/>
<stop offset="0.7988" stop-color="#9500DA"/>
<stop offset="0.9934" stop-color="#9F00E8"/>
</linearGradient>
<radialGradient id="paint16_radial_1_329" cx="0" cy="0" r="1" gradientUnits="userSpaceOnUse" gradientTransform="translate(3.11991 28.8432) rotate(180) scale(15.92)">
<stop offset="0.9066" stop-color="white" stop-opacity="0"/>
<stop offset="0.9551" stop-color="white" stop-opacity="0.5"/>
<stop offset="1" stop-color="white" stop-opacity="0"/>
</radialGradient>
<linearGradient id="paint17_linear_1_329" x1="20.234" y1="27.3976" x2="2.25562" y2="11.2791" gradientUnits="userSpaceOnUse">
<stop offset="0.00268665" stop-color="#7000A3"/>
<stop offset="0.2117" stop-color="#7B00B3" stop-opacity="0"/>
<stop offset="0.8349" stop-color="#9400D8" stop-opacity="0"/>
<stop offset="0.9934" stop-color="#9F00E8"/>
</linearGradient>
</defs>
</svg>
