<svg width="37" height="27" viewBox="0 0 37 27" fill="none" xmlns="http://www.w3.org/2000/svg">
<path d="M-0.000434852 26.7337L0.921746 21.1108C2.76611 21.2423 4.26465 20.9792 5.41738 20.3216C6.57011 19.6968 7.37702 18.7761 7.83811 17.5594C8.26078 16.3757 8.33762 14.9946 8.06865 13.4162L-0.000433688 13.4162L-0.000432515 -5.1019e-06L15.6767 -3.73137e-06L15.6767 13.4162C15.6767 18.1513 14.3894 21.7356 11.815 24.1689C9.24059 26.6351 5.30211 27.4901 -0.000434852 26.7337ZM20.8639 26.7337L21.7861 21.1108C23.6305 21.2423 25.129 20.9793 26.2817 20.3216C27.4345 19.6968 28.2414 18.7761 28.7025 17.5594C29.1251 16.3757 29.202 14.9946 28.933 13.4162L20.8639 13.4162L20.8639 -3.27788e-06L36.541 -1.90735e-06L36.541 13.4162C36.541 18.1513 35.2538 21.7356 32.6794 24.1689C30.105 26.6351 26.1665 27.4901 20.8639 26.7337Z" fill="#FF7F5C"/>
</svg>
