<svg width="146" height="20" viewBox="0 0 146 20" fill="none" xmlns="http://www.w3.org/2000/svg">
<path d="M51.5175 19.7817L49.6316 16.5071C50.5205 14.8477 50.5107 12.8534 50.5107 10.3125C50.5107 7.0429 50.5107 4.67438 48.6249 2.75889C47.2562 1.4295 45.4253 0.686157 43.5198 0.686157C41.6142 0.686157 39.7834 1.4295 38.4147 2.75889C36.5043 4.67438 36.5583 7.0429 36.5583 10.3125C36.5583 13.5822 36.5043 15.9507 38.4147 17.8662C39.0785 18.5475 39.876 19.0834 40.7568 19.4402C41.6376 19.797 42.5825 19.9669 43.532 19.9393C44.0728 19.939 44.6123 19.8862 45.1429 19.7817H51.5175ZM41.1452 15.6306C40.4282 14.8329 40.2465 13.9564 40.2465 10.3125C40.2465 6.66868 40.4282 5.79217 41.1452 4.99446C41.4481 4.66506 41.8178 4.40452 42.2296 4.23039C42.6412 4.05627 43.0854 3.97259 43.532 3.985C43.9792 3.96899 44.4244 4.05101 44.8367 4.22537C45.2489 4.39971 45.6182 4.6622 45.9188 4.99446C46.6359 5.79217 46.847 6.66868 46.847 10.3125C46.847 13.9564 46.6359 14.8329 45.9188 15.6306C45.6209 15.9597 45.2556 16.2203 44.8479 16.3945C44.4401 16.5687 43.9997 16.6525 43.5566 16.6401C43.1058 16.6561 42.657 16.5741 42.2408 16.3999C41.8245 16.2257 41.4508 15.9632 41.1452 15.6306Z" fill="white"/>
<path d="M94.6606 19.7718V0.843384H98.3001V19.7718H94.6606Z" fill="white"/>
<path d="M6.89507 19.9392C4.0319 19.9392 1.85628 19.3286 0.0195312 17.4377L2.40632 15.0446C3.59971 16.2412 5.21547 16.6401 6.9687 16.6401C9.14434 16.6401 10.3082 15.8177 10.3082 14.3011C10.3273 14.0094 10.2856 13.7169 10.1858 13.4422C10.0861 13.1676 9.93041 12.9167 9.72877 12.7057C9.2577 12.307 8.66966 12.0736 8.05407 12.0409L5.77533 11.7208C4.15468 11.4845 2.96128 10.9773 2.11657 10.1549C1.64944 9.65988 1.28823 9.07422 1.05513 8.43407C0.822031 7.79387 0.721978 7.11265 0.761109 6.43227C0.761109 3.0543 3.25595 0.685791 7.34199 0.685791C9.93992 0.685791 11.8209 1.32592 13.4415 2.8918L11.1039 5.20616C9.91045 4.06375 8.48132 3.90617 7.23393 3.90617C5.26949 3.90617 4.31674 4.99442 4.31674 6.29932C4.31112 6.5512 4.35751 6.8015 4.45301 7.03458C4.54851 7.26761 4.69107 7.47835 4.8717 7.65344C5.36872 8.0717 5.97948 8.33069 6.62494 8.39703L8.84965 8.7171C10.5735 8.95835 11.6637 9.43601 12.4593 10.1943C13.4661 11.1496 13.9327 12.5333 13.9327 14.2075C13.8982 17.8662 10.8485 19.9392 6.89507 19.9392Z" fill="white"/>
<path d="M19.2905 19.7817V0.843384H31.7303V4.14257H22.9787V8.57429H30.4338V11.8735H22.9787V16.4726H31.7303V19.7718L19.2905 19.7817Z" fill="white"/>
<path d="M63.0187 19.9392C59.1441 19.9392 56.0698 17.3048 56.0698 13.2916V0.843384H59.7532V13.1538C59.7532 15.3352 61.0298 16.6351 63.0187 16.6351C65.0083 16.6351 66.3047 15.3352 66.3047 13.1538V0.843384H69.9832V13.2916C69.9832 17.3048 66.8887 19.9392 63.0187 19.9392Z" fill="white"/>
<path d="M87.368 17.8662C85.9998 19.1956 84.169 19.9389 82.2629 19.9389C80.3574 19.9389 78.5266 19.1956 77.1578 17.8662C75.2477 15.9507 75.3019 13.5822 75.3019 10.3125C75.3019 7.0429 75.2477 4.67438 77.1578 2.75889C78.5266 1.4295 80.3574 0.686157 82.2629 0.686157C84.169 0.686157 85.9998 1.4295 87.368 2.75889C89.2787 4.67438 89.249 7.0429 89.249 10.3125C89.249 13.5822 89.2787 15.9507 87.368 17.8662ZM84.6375 4.99446C84.3399 4.66542 83.9747 4.40484 83.5669 4.2306C83.1591 4.05637 82.7186 3.97258 82.2757 3.985C81.8288 3.97259 81.3848 4.05627 80.9729 4.23039C80.561 4.40452 80.1917 4.66506 79.8889 4.99446C79.1719 5.79217 78.9852 6.66868 78.9852 10.3125C78.9852 13.9564 79.1719 14.8329 79.8889 15.6306C80.1917 15.96 80.561 16.2205 80.9729 16.3947C81.3848 16.5688 81.8288 16.6525 82.2757 16.6401C82.7186 16.6525 83.1591 16.5687 83.5669 16.3945C83.9747 16.2203 84.3399 15.9597 84.6375 15.6306C85.3545 14.8329 85.5658 13.9564 85.5658 10.3125C85.5658 6.66868 85.3545 5.79217 84.6375 4.99446Z" fill="white"/>
<path d="M115.656 19.7817L114.546 16.4284H107.838L106.698 19.7817H102.853L109.728 0.843384H112.616L119.516 19.7817H115.656ZM111.236 6.4323L108.85 13.3261H113.545L111.236 6.4323Z" fill="white"/>
<path d="M145.859 0.843384H141.14V5.57549H145.859V0.843384Z" fill="white"/>
<path d="M129.338 15.739V0.843384H126.976V18.1075L129.338 15.739Z" fill="white"/>
<path d="M131.003 17.4131L128.646 19.7768H145.859V17.4131H131.003Z" fill="white"/>
<path d="M134.058 11.0068V0.843384H131.696V13.3704L134.058 11.0068Z" fill="white"/>
<path d="M135.728 12.681L133.366 15.0447H145.859V12.681H135.728Z" fill="white"/>
<path d="M138.777 6.27473V0.843384H136.415V8.6383L138.777 6.27473Z" fill="white"/>
<path d="M140.447 7.94397L138.085 10.3125H145.859V7.94397H140.447Z" fill="white"/>
</svg>
