<svg width="26" height="28" viewBox="0 0 26 28" fill="none" xmlns="http://www.w3.org/2000/svg">
<path d="M15.5 27.3333H10.5C10.1667 27.3333 9.87782 27.2222 9.63338 27C9.38893 26.7777 9.24449 26.5 9.20004 26.1666L8.80004 23.0666C8.51115 22.9555 8.23915 22.8222 7.98404 22.6666C7.72804 22.5111 7.47782 22.3444 7.23338 22.1666L4.33338 23.3666C4.02226 23.4777 3.71115 23.4888 3.40004 23.4C3.08893 23.3111 2.84449 23.1222 2.66671 22.8333L0.200043 18.5333C0.0222651 18.2444 -0.0332904 17.9333 0.0333762 17.6C0.100043 17.2666 0.26671 17 0.533376 16.8L3.03338 14.9C3.01115 14.7444 3.00004 14.5942 3.00004 14.4493V13.5493C3.00004 13.4053 3.01115 13.2555 3.03338 13.1L0.533376 11.2C0.26671 11 0.100043 10.7333 0.0333762 10.4C-0.0332904 10.0666 0.0222651 9.75552 0.200043 9.46663L2.66671 5.16663C2.82226 4.85551 3.06093 4.66085 3.38271 4.58263C3.70538 4.50529 4.02226 4.52218 4.33338 4.63329L7.23338 5.83329C7.47782 5.65551 7.73338 5.48885 8.00004 5.33329C8.26671 5.17774 8.53338 5.0444 8.80004 4.93329L9.20004 1.83329C9.24449 1.49996 9.38893 1.22218 9.63338 0.999959C9.87782 0.777737 10.1667 0.666626 10.5 0.666626H15.5C15.8334 0.666626 16.1223 0.777737 16.3667 0.999959C16.6112 1.22218 16.7556 1.49996 16.8 1.83329L17.2 4.93329C17.4889 5.0444 17.7614 5.17774 18.0174 5.33329C18.2725 5.48885 18.5223 5.65551 18.7667 5.83329L21.6667 4.63329C21.9778 4.52218 22.2889 4.51107 22.6 4.59996C22.9112 4.68885 23.1556 4.87774 23.3334 5.16663L25.8 9.46663C25.9778 9.75552 26.0334 10.0666 25.9667 10.4C25.9 10.7333 25.7334 11 25.4667 11.2L22.9667 13.1C22.9889 13.2555 23 13.4053 23 13.5493V14.4493C23 14.5942 22.9778 14.7444 22.9334 14.9L25.4334 16.8C25.7 17 25.8667 17.2666 25.9334 17.6C26 17.9333 25.9445 18.2444 25.7667 18.5333L23.3 22.8C23.1223 23.0888 22.8725 23.2835 22.5507 23.384C22.228 23.4835 21.9112 23.4777 21.6 23.3666L18.7667 22.1666C18.5223 22.3444 18.2667 22.5111 18 22.6666C17.7334 22.8222 17.4667 22.9555 17.2 23.0666L16.8 26.1666C16.7556 26.5 16.6112 26.7777 16.3667 27C16.1223 27.2222 15.8334 27.3333 15.5 27.3333ZM13.0667 18.6666C14.3556 18.6666 15.4556 18.2111 16.3667 17.3C17.2778 16.3888 17.7334 15.2888 17.7334 14C17.7334 12.7111 17.2778 11.6111 16.3667 10.7C15.4556 9.78885 14.3556 9.33329 13.0667 9.33329C11.7556 9.33329 10.6498 9.78885 9.74938 10.7C8.84982 11.6111 8.40004 12.7111 8.40004 14C8.40004 15.2888 8.84982 16.3888 9.74938 17.3C10.6498 18.2111 11.7556 18.6666 13.0667 18.6666Z" fill="white"/>
</svg>
