<svg width="29" height="29" viewBox="0 0 29 29" fill="none" xmlns="http://www.w3.org/2000/svg">
<path fill-rule="evenodd" clip-rule="evenodd" d="M28.4004 3.93318C28.4004 2.09222 26.908 0.599819 25.0671 0.599806L14.9721 0.599792C13.9113 0.599792 12.8939 1.02122 12.1437 1.77137L1.61107 12.304C-0.471727 14.3868 -0.471727 17.7638 1.61107 19.8465L9.1536 27.389C11.2364 29.4718 14.6132 29.4718 16.696 27.389L27.2287 16.8563C27.9789 16.1062 28.4003 15.0888 28.4003 14.0279L28.4004 3.93318ZM19.6667 11.3334C18.5621 11.3334 17.6667 10.4379 17.6667 9.33335C17.6667 8.22878 18.5621 7.33335 19.6667 7.33335C20.7712 7.33335 21.6667 8.22878 21.6667 9.33335C21.6667 10.4379 20.7712 11.3334 19.6667 11.3334Z" fill="white"/>
</svg>
