<svg width="28" height="28" viewBox="0 0 28 28" fill="none" xmlns="http://www.w3.org/2000/svg">
<path d="M19.5866 0.666687H8.41329C3.55996 0.666687 0.666626 3.56002 0.666626 8.41335V19.5734C0.666626 24.44 3.55996 27.3334 8.41329 27.3334H19.5733C24.4266 27.3334 27.32 24.44 27.32 19.5867V8.41335C27.3333 3.56002 24.44 0.666687 19.5866 0.666687ZM11.2133 19.5867C11.2133 20.44 10.52 21.1334 9.65329 21.1334C8.79996 21.1334 8.10663 20.44 8.10663 19.5867V15.24C8.10663 14.3867 8.79996 13.6934 9.65329 13.6934C10.52 13.6934 11.2133 14.3867 11.2133 15.24V19.5867ZM19.8933 19.5867C19.8933 20.44 19.2 21.1334 18.3466 21.1334C17.48 21.1334 16.7866 20.44 16.7866 19.5867V8.41335C16.7866 7.56002 17.48 6.86669 18.3466 6.86669C19.2 6.86669 19.8933 7.56002 19.8933 8.41335V19.5867Z" fill="white"/>
</svg>
