<svg width="32" height="32" viewBox="0 0 32 32" fill="none" xmlns="http://www.w3.org/2000/svg">
<path d="M16 30C23.732 30 30 23.732 30 16C30 8.26801 23.732 2 16 2C8.26801 2 2 8.26801 2 16C2 23.732 8.26801 30 16 30Z" fill="#3375BB"/>
<path fill-rule="evenodd" clip-rule="evenodd" d="M23.0643 9.03123C23.1883 9.0314 23.311 9.0556 23.4253 9.10243C23.5396 9.14926 23.6433 9.21778 23.7303 9.30403C23.8173 9.39028 23.8859 9.49254 23.9322 9.60488C23.9785 9.71723 24.0015 9.83743 23.9999 9.95853C23.955 12.5784 23.8515 14.5824 23.6581 16.1687C23.4695 17.755 23.1858 18.9334 22.7585 19.8869C22.4706 20.524 22.1152 21.0513 21.6976 21.4999C21.1348 22.0934 20.4929 22.524 19.7905 22.9329C19.4905 23.1081 19.1786 23.2813 18.852 23.4628C18.1539 23.8501 17.3867 24.2761 16.5159 24.8452C16.3623 24.9461 16.1815 25 15.9964 25C15.8114 25 15.6305 24.9461 15.477 24.8452C14.5932 24.2699 13.8159 23.8383 13.1121 23.4487C12.9555 23.362 12.8023 23.2767 12.6526 23.1928C11.8293 22.7273 11.088 22.2829 10.4403 21.6417C10.0085 21.2198 9.63511 20.7051 9.33773 20.0948C8.93327 19.2777 8.65835 18.2891 8.45684 17.0094C8.18436 15.2981 8.0505 13.0607 8.00012 9.95839C7.99811 9.83766 8.02055 9.71773 8.06615 9.60551C8.11175 9.49328 8.17961 9.39097 8.26583 9.30447C8.44371 9.13085 8.68458 9.0329 8.93601 9.03193H9.32291C10.5147 9.03629 13.1459 8.9221 15.4215 7.1911C15.5858 7.0672 15.7875 7 15.9951 7C16.2026 7 16.4043 7.0672 16.5686 7.1911C18.8442 8.92224 21.4754 9.03755 22.673 9.03193M20.9731 19.302C21.2654 18.7132 21.5085 17.9 21.6927 16.7313C21.9131 15.3335 22.0481 13.435 22.1116 10.8517C20.7082 10.812 18.2973 10.5483 15.9986 9.03615C13.7 10.5434 11.2891 10.8064 9.89002 10.8514C9.93954 12.9875 10.0384 14.6483 10.1959 15.9534C10.3758 17.4384 10.632 18.4453 10.9516 19.1527C11.163 19.6229 11.3969 19.9613 11.6756 20.2608C12.0489 20.6608 12.5212 20.9903 13.1639 21.369C13.4307 21.5251 13.7252 21.6881 14.0448 21.8654C14.6153 22.1808 15.2682 22.5418 15.9966 22.9947C16.7121 22.5489 17.3553 22.1917 17.9196 21.8781C18.0896 21.7836 18.2521 21.6938 18.4074 21.6057C19.199 21.1618 19.7834 20.7927 20.2195 20.3625C20.514 20.0668 20.753 19.7461 20.9732 19.3017" fill="white"/>
</svg>
