<svg width="28" height="23" viewBox="0 0 28 23" fill="none" xmlns="http://www.w3.org/2000/svg">
<path d="M27.9466 2.99992C26.9199 3.46659 25.8132 3.77325 24.6666 3.91992C25.8399 3.21325 26.7466 2.09325 27.1732 0.746585C26.0666 1.41325 24.8399 1.87992 23.5466 2.14659C22.4932 0.999919 21.0132 0.333252 19.3332 0.333252C16.1999 0.333252 13.6399 2.89325 13.6399 6.05325C13.6399 6.50658 13.6932 6.94659 13.7866 7.35992C9.03989 7.11992 4.81322 4.83992 1.99989 1.38659C1.50656 2.22659 1.22656 3.21325 1.22656 4.25325C1.22656 6.23992 2.22656 7.99992 3.77322 8.99992C2.82656 8.99992 1.94656 8.73325 1.17322 8.33325V8.37325C1.17322 11.1466 3.14656 13.4666 5.75989 13.9866C4.92086 14.2162 4.04002 14.2481 3.18656 14.0799C3.5487 15.2166 4.25794 16.2111 5.21458 16.9238C6.17122 17.6365 7.32715 18.0315 8.51989 18.0533C6.49806 19.6538 3.99188 20.519 1.41322 20.5066C0.959889 20.5066 0.506556 20.4799 0.0532227 20.4266C2.58656 22.0532 5.59989 22.9999 8.82656 22.9999C19.3332 22.9999 25.1066 14.2799 25.1066 6.71992C25.1066 6.46658 25.1066 6.22658 25.0932 5.97325C26.2132 5.17325 27.1732 4.15992 27.9466 2.99992Z" fill="white"/>
</svg>
