<svg width="32" height="32" viewBox="0 0 32 32" fill="none" xmlns="http://www.w3.org/2000/svg">
<path fill-rule="evenodd" clip-rule="evenodd" d="M16.2557 3C23.5773 3 29.5113 8.93398 29.5113 16.2557C29.5113 23.5773 23.5773 29.5113 16.2557 29.5113C8.93398 29.5113 3 23.5773 3 16.2557C3 8.93398 8.93398 3 16.2557 3Z" fill="url(#paint0_radial_1_312)"/>
<path d="M11.4247 13.2369C14.0913 10.6324 18.4201 10.6324 21.0868 13.2369L21.4078 13.5528C21.5425 13.6822 21.5425 13.8945 21.4078 14.024L20.3101 15.0958C20.2428 15.1631 20.134 15.1631 20.0667 15.0958L19.6266 14.666C17.7625 12.8486 14.7489 12.8486 12.8848 14.666L12.4136 15.1269C12.3463 15.1942 12.2376 15.1942 12.1703 15.1269L11.0725 14.055C10.9379 13.9256 10.9379 13.7133 11.0725 13.5838L11.4247 13.2369ZM23.3599 15.4531L24.3386 16.4058C24.4732 16.5353 24.4732 16.7476 24.3386 16.877L19.9321 21.1799C19.7975 21.3094 19.58 21.3094 19.4505 21.1799L16.323 18.1249C16.292 18.0939 16.235 18.0939 16.2039 18.1249L13.0764 21.1799C12.9418 21.3094 12.7243 21.3094 12.5949 21.1799L8.17287 16.877C8.03824 16.7476 8.03824 16.5353 8.17287 16.4058L9.15151 15.4531C9.28614 15.3236 9.50362 15.3236 9.63307 15.4531L12.7606 18.5081C12.7916 18.5392 12.8486 18.5392 12.8797 18.5081L16.0072 15.4531C16.1418 15.3236 16.3593 15.3236 16.4887 15.4531L19.6162 18.5081C19.6473 18.5392 19.7043 18.5392 19.7353 18.5081L22.8628 15.4531C23.0078 15.3236 23.2253 15.3236 23.3599 15.4531Z" fill="white"/>
<defs>
<radialGradient id="paint0_radial_1_312" cx="0" cy="0" r="1" gradientUnits="userSpaceOnUse" gradientTransform="translate(3.00008 16.2561) scale(26.5113)">
<stop stop-color="#5D9DF6"/>
<stop offset="1" stop-color="#006FFF"/>
</radialGradient>
</defs>
</svg>
