<svg width="147" height="49" viewBox="0 0 147 49" fill="none" xmlns="http://www.w3.org/2000/svg">
<path d="M39.2755 19.4801C39.2166 19.2761 39.3334 19.1287 39.5385 19.1287H40.8832C40.9999 19.1287 41.1167 19.2308 41.1462 19.3327L42.6665 25.1658H42.7243L45.0485 19.1434C45.078 19.0561 45.1505 18.9836 45.2968 18.9836H45.5598C45.706 18.9836 45.7786 19.0561 45.8081 19.1434L48.1504 25.1658H48.2094L49.7002 19.3327C49.7297 19.2308 49.8465 19.1287 49.9633 19.1287H51.3079C51.5119 19.1287 51.6299 19.275 51.5709 19.4801L48.808 29.3032C48.7785 29.4199 48.6617 29.5072 48.545 29.5072H48.3114C48.1799 29.5072 48.0926 29.4335 48.0631 29.3462L45.4465 22.7254H45.3739L42.7855 29.3462C42.7413 29.4335 42.6835 29.5072 42.5373 29.5072H42.3037C42.1869 29.5072 42.0702 29.4188 42.0407 29.3032L39.2755 19.4801Z" fill="white"/>
<path d="M54.4663 19.408C54.4663 19.2618 54.5978 19.1304 54.7441 19.1304H56.1034C56.2497 19.1304 56.3812 19.2618 56.3812 19.408V29.0849C56.3812 29.2311 56.2497 29.3626 56.1034 29.3626H54.7441C54.5978 29.3626 54.4663 29.2311 54.4663 29.0849V19.408Z" fill="white"/>
<path d="M60.2805 19.2466C60.2805 19.1003 60.412 18.9836 60.5582 18.9836H60.9233L67.0046 25.4436H67.0194V19.4076C67.0194 19.2613 67.1362 19.1298 67.2972 19.1298H68.6417C68.7881 19.1298 68.9196 19.2613 68.9196 19.4076V29.2442C68.9196 29.3904 68.7881 29.5072 68.6417 29.5072H68.2903L62.1795 22.7979H62.1647V29.0833C62.1647 29.2295 62.048 29.3609 61.8869 29.3609H60.5571C60.4108 29.3609 60.2793 29.2295 60.2793 29.0833V19.2466H60.2805Z" fill="white"/>
<path d="M74.1711 20.8839H71.9341C71.773 20.8839 71.6562 20.7524 71.6562 20.6062V19.408C71.6562 19.2618 71.773 19.1304 71.9341 19.1304H78.323C78.4836 19.1304 78.6001 19.2618 78.6001 19.408V20.6062C78.6001 20.7524 78.4836 20.8839 78.323 20.8839H76.0858V29.0837C76.0858 29.23 75.9546 29.3615 75.808 29.3615H74.4489C74.3023 29.3615 74.1711 29.23 74.1711 29.0837V20.8839Z" fill="white"/>
<path d="M81.3291 19.408C81.3291 19.2618 81.4457 19.1304 81.6069 19.1304H87.557C87.7175 19.1304 87.8348 19.2618 87.8348 19.408V20.6062C87.8348 20.7524 87.7175 20.8839 87.557 20.8839H83.2291V23.2813H86.8401C86.9867 23.2813 87.1179 23.4128 87.1179 23.559V24.7718C87.1179 24.9328 86.9867 25.0496 86.8401 25.0496H83.2291V27.6079H87.557C87.7175 27.6079 87.8348 27.7394 87.8348 27.8857V29.0849C87.8348 29.2311 87.7175 29.3626 87.557 29.3626H81.6069C81.4457 29.3626 81.3291 29.2311 81.3291 29.0849V19.408Z" fill="white"/>
<path d="M91.2554 19.408C91.2554 19.2618 91.3719 19.1304 91.5332 19.1304H95.7144C97.4686 19.1304 98.9017 20.5336 98.9017 22.2736C98.9017 23.6179 98.0089 24.714 96.7385 25.2264L98.7412 28.9387C98.8438 29.1291 98.7412 29.3626 98.4934 29.3626H96.9584C96.8265 29.3626 96.7539 29.29 96.7246 29.2311L94.7806 25.3579H93.1576V29.0849C93.1576 29.2311 93.0264 29.3626 92.8798 29.3626H91.5354C91.3741 29.3626 91.2576 29.2311 91.2576 29.0849V19.408H91.2554ZM95.5532 23.7925C96.328 23.7925 97.0009 23.1203 97.0009 22.3019C97.0009 21.5277 96.3287 20.8839 95.5532 20.8839H93.1701V23.7925H95.5532Z" fill="white"/>
<path d="M103.259 19.2024C103.274 19.0856 103.361 18.9836 103.522 18.9836H103.756C103.872 18.9836 103.96 19.0414 104.004 19.1298L107.22 26.0296C107.25 26.0296 107.25 26.0296 107.265 26.0296L110.482 19.1298C110.526 19.0426 110.598 18.9836 110.729 18.9836H110.963C111.124 18.9836 111.212 19.0856 111.226 19.2024L112.951 29.0243C112.996 29.2283 112.878 29.3609 112.688 29.3609H111.359C111.227 29.3609 111.11 29.2442 111.081 29.1422L110.218 23.6027C110.204 23.6027 110.174 23.6027 110.174 23.6027L107.615 29.3474C107.585 29.4347 107.498 29.5083 107.367 29.5083H107.105C106.973 29.5083 106.901 29.4347 106.857 29.3474L104.268 23.6027C104.268 23.6027 104.239 23.6027 104.224 23.6027L103.376 29.1422C103.362 29.2442 103.244 29.3609 103.113 29.3609H101.796C101.607 29.3609 101.489 29.2295 101.519 29.0243L103.259 19.2024Z" fill="white"/>
<path d="M115.965 19.408C115.965 19.2618 116.097 19.1304 116.243 19.1304H117.632C117.793 19.1304 117.909 19.2618 117.909 19.408V25.3862C117.909 26.6286 118.757 27.6079 120.03 27.6079C121.302 27.6079 122.165 26.6286 122.165 25.4009V19.408C122.165 19.2618 122.281 19.1304 122.442 19.1304H123.832C123.977 19.1304 124.109 19.2618 124.109 19.408V25.4882C124.109 27.7099 122.34 29.5077 120.03 29.5077C117.735 29.5077 115.965 27.7099 115.965 25.4882V19.408Z" fill="white"/>
<path d="M129.286 20.8839H127.049C126.889 20.8839 126.772 20.7524 126.772 20.6062V19.408C126.772 19.2618 126.889 19.1304 127.049 19.1304H133.438C133.6 19.1304 133.716 19.2618 133.716 19.408V20.6062C133.716 20.7524 133.6 20.8839 133.438 20.8839H131.201V29.0837C131.201 29.23 131.07 29.3615 130.923 29.3615H129.564C129.418 29.3615 129.286 29.23 129.286 29.0837V20.8839Z" fill="white"/>
<path d="M136.445 19.408C136.445 19.2618 136.562 19.1304 136.723 19.1304H142.673C142.834 19.1304 142.951 19.2618 142.951 19.408V20.6062C142.951 20.7524 142.834 20.8839 142.673 20.8839H138.346V23.2813H141.957C142.103 23.2813 142.234 23.4128 142.234 23.559V24.7718C142.234 24.9328 142.103 25.0496 141.957 25.0496H138.346V27.6079H142.673C142.834 27.6079 142.951 27.7394 142.951 27.8857V29.0849C142.951 29.2311 142.834 29.3626 142.673 29.3626H136.723C136.562 29.3626 136.445 29.2311 136.445 29.0849V19.408Z" fill="white"/>
<path d="M4.26424 27.7497C4.2597 27.7679 4.25743 27.786 4.25516 27.8053C4.25176 27.8268 4.2495 27.8472 4.24836 27.8687C4.24836 27.8744 4.24609 27.88 4.24609 27.8868C4.24609 27.8993 4.2495 27.9107 4.2495 27.922C4.25063 27.9435 4.25176 27.964 4.2563 27.9854C4.2597 28.0047 4.26424 28.0229 4.26877 28.041C4.2733 28.0592 4.27897 28.0773 4.28577 28.0954C4.29258 28.1136 4.30051 28.1317 4.30958 28.1487C4.31752 28.1657 4.32659 28.1816 4.33679 28.1986C4.347 28.2144 4.35834 28.2303 4.36967 28.2451C4.38101 28.2609 4.39348 28.2757 4.40708 28.2904C4.41956 28.304 4.43429 28.3176 4.4479 28.33C4.46264 28.3425 4.47625 28.355 4.49212 28.3663C4.50912 28.3788 4.52727 28.389 4.5454 28.4003C4.55561 28.406 4.56467 28.414 4.57601 28.4196L18.8453 35.5528C18.851 35.5551 18.8566 35.5562 18.8611 35.5585C18.8691 35.5619 18.8759 35.5664 18.8839 35.5698C18.8906 35.5732 18.8986 35.5744 18.9065 35.5778C18.9178 35.5823 18.9303 35.5857 18.9416 35.5891C18.953 35.5925 18.9643 35.5959 18.9756 35.5981C18.9825 35.5993 18.9881 35.6027 18.9949 35.6039C19.0017 35.605 19.0085 35.605 19.0153 35.6061C19.0278 35.6084 19.0402 35.6095 19.0539 35.6107C19.0675 35.6118 19.0811 35.6129 19.0935 35.6129C19.1049 35.6129 19.1173 35.6129 19.1287 35.6129C19.1423 35.6129 19.1547 35.6118 19.1684 35.6107C19.1809 35.6095 19.1934 35.6072 19.207 35.6061C19.2137 35.605 19.2205 35.605 19.2274 35.6039C19.2342 35.6027 19.2398 35.6004 19.2466 35.5981C19.2579 35.5959 19.2693 35.5925 19.2807 35.5891C19.2919 35.5857 19.3044 35.5811 19.3158 35.5778C19.3237 35.5755 19.3305 35.5732 19.3384 35.5698C19.3464 35.5664 19.3532 35.5619 19.3611 35.5585C19.3668 35.5562 19.3724 35.5551 19.377 35.5528L33.6463 28.4196C33.6576 28.414 33.6655 28.406 33.6769 28.4003C33.695 28.3902 33.7131 28.3788 33.7301 28.3663C33.746 28.355 33.7596 28.3425 33.7743 28.33C33.7891 28.3176 33.8027 28.304 33.8152 28.2904C33.8288 28.2757 33.8401 28.2609 33.8525 28.2451C33.8639 28.2303 33.8753 28.2144 33.8855 28.1986C33.8956 28.1827 33.9036 28.1657 33.9127 28.1487C33.9217 28.1317 33.9297 28.1136 33.9365 28.0954C33.9432 28.0773 33.9489 28.0592 33.9535 28.041C33.958 28.0229 33.9625 28.0047 33.9659 27.9854C33.9693 27.964 33.9705 27.9435 33.9727 27.922C33.9739 27.9107 33.9761 27.8993 33.9761 27.8868C33.9761 27.8812 33.975 27.8756 33.9739 27.8687C33.9727 27.8472 33.9705 27.8268 33.967 27.8053C33.9648 27.7871 33.9625 27.7679 33.958 27.7497C33.9535 27.7327 33.9478 27.7146 33.9421 27.6976C33.9353 27.6772 33.9285 27.6556 33.9183 27.6364C33.916 27.6306 33.9149 27.625 33.9127 27.6205L26.7769 13.3541C26.7735 13.3473 26.7679 13.3427 26.7644 13.337C26.744 13.2996 26.7202 13.2645 26.6919 13.2328C26.6851 13.2248 26.6795 13.2169 26.6726 13.2101C26.6397 13.1761 26.6023 13.1455 26.5614 13.1194C26.5512 13.1126 26.5411 13.1081 26.5309 13.1024C26.498 13.0843 26.4628 13.0695 26.4266 13.0571C26.4141 13.0525 26.4016 13.0491 26.3892 13.0457C26.3438 13.0344 26.2974 13.0265 26.2497 13.0265C26.2475 13.0265 26.2452 13.0253 26.2452 13.0253C26.2396 13.0253 26.2327 13.0276 26.2271 13.0276C26.1896 13.0287 26.1533 13.0321 26.1182 13.0401C26.1069 13.0423 26.0955 13.048 26.0842 13.0503C26.0536 13.0593 26.0241 13.0695 25.9957 13.082C25.9912 13.0843 25.9856 13.0854 25.981 13.0877C25.9697 13.0933 25.9617 13.1013 25.9504 13.1069C25.9323 13.1172 25.9142 13.1285 25.8972 13.141C25.8813 13.1523 25.8677 13.1648 25.853 13.1772C25.8381 13.1897 25.8245 13.2033 25.812 13.2169C25.7985 13.2316 25.7871 13.2464 25.7747 13.2622C25.7633 13.277 25.752 13.2928 25.7418 13.3087C25.7316 13.3246 25.7236 13.3416 25.7146 13.3586C25.7055 13.3756 25.6975 13.3937 25.6908 13.4119C25.684 13.43 25.6794 13.4481 25.6738 13.4663C25.6693 13.4844 25.6647 13.5025 25.6613 13.5218C25.6579 13.5433 25.6568 13.5638 25.6545 13.5853C25.6533 13.5966 25.6511 13.608 25.6511 13.6204V26.4518L19.5323 20.3343C19.5039 20.3059 19.4733 20.281 19.4405 20.2594C19.4268 20.2503 19.411 20.2436 19.3963 20.2356C19.377 20.2254 19.3589 20.2141 19.3384 20.205C19.3191 20.1971 19.2988 20.1926 19.2795 20.1869C19.2625 20.1824 19.2455 20.1756 19.2285 20.1722C19.19 20.1642 19.1514 20.1608 19.1117 20.1608C19.0731 20.1608 19.0335 20.1654 18.9949 20.1722C18.9768 20.1756 18.9609 20.1824 18.9428 20.1869C18.9223 20.1926 18.9031 20.1971 18.8839 20.205C18.8634 20.2129 18.8453 20.2254 18.826 20.2356C18.8113 20.2436 18.7966 20.2503 18.7818 20.2594C18.7488 20.281 18.7183 20.3059 18.6899 20.3343L12.5711 26.4518V13.6204C12.5711 13.608 12.5678 13.5966 12.5678 13.5853C12.5667 13.5638 12.5655 13.5433 12.561 13.5218C12.5576 13.5025 12.553 13.4844 12.5485 13.4663C12.5439 13.4481 12.5383 13.43 12.5315 13.4119C12.5247 13.3937 12.5168 13.3756 12.5077 13.3586C12.4997 13.3416 12.4906 13.3257 12.4804 13.3087C12.4702 13.2928 12.4589 13.277 12.4476 13.2622C12.4362 13.2464 12.4237 13.2316 12.4102 13.2169C12.3977 13.2033 12.3829 13.1897 12.3693 13.1772C12.3546 13.1648 12.341 13.1523 12.3251 13.141C12.3081 13.1285 12.29 13.1183 12.2718 13.1069C12.2617 13.1013 12.2526 13.0933 12.2413 13.0877C12.2367 13.0854 12.231 13.0843 12.2265 13.082C12.1982 13.0684 12.1687 13.0593 12.1392 13.0503C12.1267 13.0469 12.1153 13.0412 12.1029 13.0389C12.0678 13.031 12.0326 13.0276 11.9952 13.0265C11.9895 13.0276 11.9827 13.0253 11.9771 13.0253C11.9748 13.0253 11.9725 13.0265 11.9725 13.0265C11.9238 13.0265 11.8773 13.0344 11.8331 13.0457C11.8207 13.0491 11.8082 13.0537 11.7957 13.0571C11.7594 13.0684 11.7242 13.0843 11.6913 13.1024C11.6812 13.1081 11.671 13.1126 11.6607 13.1194C11.6199 13.1455 11.5825 13.175 11.5497 13.2101C11.5428 13.2169 11.5372 13.226 11.5304 13.2328C11.502 13.2645 11.4783 13.2996 11.4578 13.337C11.4544 13.3439 11.4487 13.3484 11.4453 13.3541L4.30958 27.6205C4.30732 27.6262 4.30618 27.6306 4.30392 27.6364C4.29485 27.6556 4.28805 27.6772 4.28011 27.6976C4.27444 27.7146 4.26877 27.7316 4.26424 27.7497ZM11.7299 28.4808L16.0993 32.8494L7.36047 28.4808H11.7299ZM26.4912 28.4808H30.8606L22.1217 32.8494L26.4912 28.4808ZM26.8393 27.2918V16.138L32.4173 27.2918H26.8393ZM19.7046 33.5839V22.1875L25.4039 27.8857L19.7046 33.5839ZM18.5165 33.5839L12.8172 27.8857L18.5165 22.1875V33.5839ZM5.80386 27.2918L11.3819 16.138V27.2918H5.80386Z" fill="white"/>
</svg>
