<svg width="18" height="14" viewBox="0 0 18 14" fill="none" xmlns="http://www.w3.org/2000/svg">
<path d="M17.3047 2.45313C17.2329 2.1651 17.0923 1.89878 16.895 1.67699C16.6977 1.4552 16.4496 1.28456 16.1719 1.17969C13.5 0.148439 9.23438 0.156252 9 0.156252C8.76562 0.156252 4.5 0.148439 1.82812 1.17969C1.55042 1.28456 1.30229 1.4552 1.10499 1.67699C0.907695 1.89878 0.767119 2.1651 0.695313 2.45313C0.492188 3.22656 0.25 4.64844 0.25 7C0.25 9.35156 0.492188 10.7734 0.695313 11.5469C0.767119 11.8349 0.907695 12.1012 1.10499 12.323C1.30229 12.5448 1.55042 12.7154 1.82812 12.8203C4.39062 13.8125 8.40625 13.8438 8.94531 13.8438H9.05469C9.59375 13.8438 13.6094 13.8125 16.1719 12.8203C16.4496 12.7154 16.6977 12.5448 16.895 12.323C17.0923 12.1012 17.2329 11.8349 17.3047 11.5469C17.5078 10.7734 17.75 9.35156 17.75 7C17.75 4.64844 17.5078 3.22656 17.3047 2.45313ZM11.6719 7.25781L7.92188 9.75781C7.87214 9.79442 7.81174 9.81364 7.75 9.8125C7.69825 9.81057 7.64756 9.79723 7.60156 9.77344C7.55163 9.74746 7.50986 9.70816 7.4809 9.6599C7.45194 9.61163 7.43692 9.55629 7.4375 9.5V4.5C7.43692 4.44372 7.45194 4.38837 7.4809 4.34011C7.50986 4.29184 7.55163 4.25254 7.60156 4.22656C7.65138 4.19999 7.70748 4.1874 7.76388 4.19016C7.82028 4.19291 7.87488 4.21089 7.92188 4.24219L11.6719 6.74219C11.7154 6.76963 11.7514 6.80768 11.7762 6.85276C11.8011 6.89785 11.8142 6.9485 11.8142 7C11.8142 7.0515 11.8011 7.10216 11.7762 7.14724C11.7514 7.19233 11.7154 7.23037 11.6719 7.25781Z" fill="white"/>
</svg>
